<svg width="886" height="877" viewBox="0 0 886 877" fill="none" xmlns="http://www.w3.org/2000/svg">
<path d="M142.073 0C63.6864 0 0.266968 62.8845 0.266968 140.52V736.506C0.266968 814.08 63.6864 877 142.073 877H743.731C822.056 877 885.502 814.083 885.502 736.506V730.408C882.865 729.32 655.439 635.34 539.844 580.273C461.857 675.352 361.267 733.036 256.827 733.036C80.2209 733.036 20.2481 579.91 103.871 479.113C122.104 457.138 153.121 436.145 201.26 424.393C276.566 406.064 396.412 435.838 508.739 472.562C528.945 435.686 545.942 395.075 558.603 351.835H212.448V317.106H390.939V254.824H174.754V220.071H390.939V131.23C390.939 131.23 390.939 116.265 406.246 116.265H493.503V220.068H707.221V254.83H493.503V317.106H667.951C651.259 384.858 625.913 447.222 594.095 501.968C647.04 520.94 694.566 538.936 729.985 550.688C848.127 589.853 881.24 594.638 885.511 595.138V140.523C885.511 62.8874 822.062 0.00292336 743.739 0.00292336H142.082L142.073 0ZM239.15 475.163C231.569 475.251 223.954 475.66 216.283 476.409C194.168 478.61 152.647 488.278 129.947 508.171C61.909 566.957 102.631 674.423 240.339 674.423C320.39 674.423 400.373 623.723 463.205 542.538C382.198 503.38 312.429 474.321 239.15 475.163Z" fill="#00A1E9"/>
</svg>
