<svg xmlns="http://www.w3.org/2000/svg" viewBox="0 0 32 32" fill="none">
  <circle cx="16" cy="16" r="16" fill="#F7931A"/>
  <path fill="#fff" d="M22.5 14.1c.3-2-1.2-3.1-3.3-3.8l.7-2.7-1.6-.4-.7 2.6c-.4-.1-.8-.2-1.3-.3l.7-2.7-1.6-.4-.7 2.7c-.3-.1-.7-.2-1-.2v-.1l-2.3-.6-.4 1.8s1.2.3 1.2.3c.7.2.8.6.8 1l-.8 3.2c0 0 .1 0 .2.1h-.2l-1.1 4.5c-.1.2-.3.5-.8.4 0 0-1.2-.3-1.2-.3l-.8 1.9 2.1.5c.4.1.8.2 1.2.3l-.7 2.8 1.6.4.7-2.7c.4.1.9.2 1.3.3l-.7 2.7 1.6.4.7-2.8c3 .6 5.2.3 6.1-2.4.8-2.1 0-3.4-1.6-4.2 1.1-.3 2-1 2.2-2.5zm-4 5.5c-.5 2.1-4.2 1-5.4.7l1-3.9c1.2.3 5 .9 4.4 3.2zm.6-5.6c-.5 1.9-3.5.9-4.5.7l.9-3.5c1 .2 4.1.7 3.6 2.8z"/>
</svg>
