<svg xmlns="http://www.w3.org/2000/svg" viewBox="0 0 250 250" height="250" width="250"><g transform="matrix(0.625,0,0,0.625,0,0)"><g transform="matrix(2,0,0,2,0,0)"><defs><style>.a{fill:#ffe497}.b{fill:#cc6666}.c{fill:#f76559}.f{fill:#ac47f5}.g{fill:#1d1d1b}</style></defs><path class="a" d="M127.187 156c-.008-.413.025-.352-.1-.352a3.148 3.148 0 0 0 .1.352z"></path><path class="a" d="M115.972 139.852a.4.4 0 0 1 .139.408c-.254.991-.517 2.54.542 3.17.926.553 2.649-.047 3.465-.805a.373.373 0 0 1 .2-.094 13 13 0 0 1 2.361-4.381c.018-.7.092-1.274.092-1.274a4.3 4.3 0 0 1-2.177.359c-1.789-.452-3.028-2.935-1.769-5.62a6.2 6.2 0 0 1 3.421-3.513 2.439 2.439 0 0 1 2.028.225c1.692 1.033.658 3.852.658 3.852.987-.539 1.542-.624 1.8-.446l-.107-5.765a.362.362 0 0 1-.151-.29c-.49-12.647-.338-12.949-1.047-14.119a3.962 3.962 0 0 0-3.058-1.877c-.11.024-17.506 3.373-20.282 4.725l-.97.543a9.876 9.876 0 0 0-4.637 8.711v49.793a105.543 105.543 0 0 0 30.862-9.124l-.125-6.694a4.3 4.3 0 0 1-.922-1.983l-6.17.037c-.378 0-.412-.489-.389-.389-.178-1.613-.328-3.23-.382-4.852-4.7 1.419-11.456-3.777-9.437-10.662.155-.527.557-1.748 1.055-2 .514-.269.944.107 5 2.065z"></path><path class="a" d="M125.3 134.245c1.415 3.782.806 3.085 1.539 3.335l-.087-4.666a1.966 1.966 0 0 1-1.452 1.331z"></path><path class="b" d="M126.732 131.733c-.263-.178-.818-.093-1.8.446 1.706-4.65-3.439-6.258-6.107-.564-1.257 2.684-.022 5.168 1.769 5.62a4.292 4.292 0 0 0 2.177-.359s-.074.575-.092 1.274c-.019.753 0 2.359.75 2.485 1.127.188 3.288-.94 3.288-1.786a28.96 28.96 0 0 0-1.409-4.6c1.18-.122 2.004-2.125 1.424-2.516z"></path><path class="c" d="M98.6 14.09a8.389 8.389 0 0 0-9.487.253C77.264 22.96 68.69 37.973 63.679 51.978c3.789 1.322 26.708 8.382 61.126-.625-5.196-14.385-13.258-29.379-26.205-37.263z"></path><path d="M54.334 121.7c-.183 9.148-.551 33.613 3.715 41.718 4.573 8.69 24.935 13.43 37.653 10.6v-44.846c-3.343.336-24.17 1.959-41.368-7.472z" style="fill:#ff8684"></path><path d="M103.659 62.573a.412.412 0 0 1-.212.582c-12.593 4.708-12.315 23.368.273 27.777a.371.371 0 0 1 .251.288c9.334 3.075 18.835-4.2 18.835-14.378 0-10.342-9.778-17.606-19.147-14.269zm11.615 4.67a1.2 1.2 0 1 1-.216-1.407 1.031 1.031 0 0 1 .216 1.407zm2.816 18.138c-.48.623-1.1-.462-.953-.647 2.847-3.692 3.257-11.3-.285-16.128-.3-.405.791-1.01 1.085-.61 3.517 4.797 3.924 12.483.153 17.385z" style="fill:#9cf0f0"></path><path class="f" d="M191.179 130.828a10.579 10.579 0 0 0-7.579-2.328 15.989 15.989 0 0 0-12.975-9.823 10.1 10.1 0 0 0-7.079-8.163c.244-14.583-19.641-18.789-25.526-5.734-.2.453.466.849.672.393 5.717-12.688 24.6-8.107 24.075 5.628a.393.393 0 0 0 .285.375 9.409 9.409 0 0 1 6.848 7.848.406.406 0 0 0 .39.389 15.232 15.232 0 0 1 12.687 9.594.4.4 0 0 0 .376.286c10.255-1.126 14.916 12.015 6.694 17.659a9.86 9.86 0 0 1-6.786 1.641c-.5-.061-.491.717 0 .777 10.448 1.271 15.97-11.985 7.918-18.542z"></path><path class="f" d="M174.682 151.358a6.793 6.793 0 0 0-6.414-10.42c1.684-8.706-5.593-13.491-10.665-10.879-.445.229-.051.9.393.672 4.63-2.386 11.358 2.33 9.414 10.544a.4.4 0 0 0 .478.479 6.06 6.06 0 0 1 5.642 9.892c-.237.276-.018.775.378.65a4.272 4.272 0 0 1 5.225 5.8c-.2.453.466.85.671.394a5.022 5.022 0 0 0-5.122-7.132z"></path><path class="f" d="M169.424 144.294a.389.389 0 0 0 0 .778c1.6-.128 2.071 1.678 2.27 3.259a.39.39 0 0 0 .779 0 6.236 6.236 0 0 0-.815-2.821 2.572 2.572 0 0 0-2.234-1.216zm21.337-4.063a6.256 6.256 0 0 0-4.093-7.5.39.39 0 0 0-.208.751 5.462 5.462 0 0 1 3.551 6.541.389.389 0 0 0 .75.208zm-39.393-38.739c-.5.024-.5.8 0 .778a4.95 4.95 0 0 1 5.024 4.323c.045.494.823.5.777 0a5.733 5.733 0 0 0-5.801-5.101zm-10.717-9.686a19.258 19.258 0 0 1 7.8-6.792c.452-.215.058-.886-.392-.671a20 20 0 0 0-8.085 7.07c-.274.42.403.81.677.393zm5.816-.253a15.29 15.29 0 0 1 5.415-3.038c.476-.15.273-.9-.206-.75A16.217 16.217 0 0 0 145.917 91c-.378.332.173.881.55.553zm-95.216 22.408a14.814 14.814 0 0 0-18.811 17.118 11.343 11.343 0 0 0-4.44 4.043c-17.52-5.394-30.578 16.052-18.076 29.193a11.811 11.811 0 0 0-1.5 5.7.389.389 0 0 0 .778 0 11.007 11.007 0 0 1 1.533-5.562.4.4 0 0 0-.061-.471c-12.373-12.586.4-33.568 17.392-28.033a.394.394 0 0 0 .439-.179 10.628 10.628 0 0 1 4.563-4.146.4.4 0 0 0 .179-.439 14.051 14.051 0 0 1 17.795-16.476.389.389 0 0 0 .209-.748zm-3.818 25.259c-7.908-1.656-12.908 2.864-12.687 8.413a8.824 8.824 0 0 0-9.361 10.327c.082.492.832.284.75-.207a8.053 8.053 0 0 1 8.655-9.34c.1-.012-.034.322.371 1.536.157.473.909.27.75-.207a7.571 7.571 0 0 1 2.21-8.117c3.491-3.014 10.626-2.253 11.883.087.237.441.909.049.672-.392a4.562 4.562 0 0 0-3.243-2.1z"></path><path class="f" d="M14.667 141.482a7.306 7.306 0 0 0-4.318 7.025c.032.5.809.5.778 0a6.559 6.559 0 0 1 3.933-6.353c.459-.195.063-.866-.393-.672zm23.762-5.397c.1.49.852.283.75-.207a2.831 2.831 0 0 1 3.831-3.222c.349.13.568-.3.439-.571-2.664-5.682 2.028-10.792 6.514-9.384.478.151.684-.6.207-.75-4.7-1.475-10.015 3.453-7.7 9.775a3.592 3.592 0 0 0-4.041 4.359zm-2.15-29.894a23.742 23.742 0 0 1 11.708.183.389.389 0 0 0 .206-.75 24.578 24.578 0 0 0-12.121-.183c-.487.116-.28.866.207.75zm-4.304 5.864a15.537 15.537 0 0 1 8.375-2.027c.5.022.5-.756 0-.778a16.312 16.312 0 0 0-8.768 2.133.389.389 0 0 0 .393.672zm42.985 63.214c-5.848-2.734-12.516.809-13.637 6.131-3.089-1.106-7.067.924-8.191 6.176-.1.488.645.7.75.207 1.038-4.848 4.556-6.652 7.314-5.61a4.991 4.991 0 0 0 .817 3.5c.291.4.966.014.672-.392-3.251-4.48 4.119-12.979 11.883-9.345.451.215.846-.455.392-.667zm6.992 1.098a3.68 3.68 0 0 0-2.984 6.6c.41.289.8-.384.392-.672a2.9 2.9 0 0 1 2.386-5.179c.486.12.693-.63.206-.749z"></path><path class="f" d="M67.289 177.861a5.371 5.371 0 0 0-2.316 4.015.389.389 0 0 0 .778 0 4.538 4.538 0 0 1 1.93-3.344.4.4 0 0 0 .14-.532.391.391 0 0 0-.532-.139z"></path><path class="c" d="m66.1 150.968-17.556.418 4.223 1.949c.667.066-1.373.142 17.882-.955zm-19.009.602c-.7 1.975-8.692 24.719-8.728 24.819l5.748 4.31c.447-1.312-1.425 4.559 8.382-26.63-.064-.025.515.231-5.402-2.499z"></path><path class="g" d="M154.63 109.909c-1.249-.768-.947-.563-18.133-1.2-1.163-29.88-11.616-80.94-38.144-95.671a9.02 9.02 0 0 0-9.285.385 40.345 40.345 0 0 0-5.195 4.313C67.7 33 59.573 56.934 56.238 79.011c-2.669 17.67-3.327 53.12-2.253 68.023.036.5.814.5.778 0-1.03-14.091-.25-43.979.882-56.569 2.447-27.234 11.731-60.314 33.466-76.122a8.389 8.389 0 0 1 9.489-.253c26.256 15.988 35.424 64.009 37.122 94.593l-4.264-.158c-.5-.018-.5.76 0 .778 22.289.817 21.76.666 22.745 1.256a3.367 3.367 0 0 1 1.62 2.918c0 .242-.591 47.143-.592 47.2a3.349 3.349 0 0 1-3.885 3.267l-16.215-1.457c-.5-.045-.5.734 0 .778l16.3 1.465a4.119 4.119 0 0 0 4.583-4.043c0-.1.592-47.122.593-47.223a4.165 4.165 0 0 0-1.977-3.555z"></path><path class="g" d="M126.054 111.093a4.771 4.771 0 0 0-3.7-2.2 6.067 6.067 0 0 0-1.764.208c-17.069 3.912-18.116 3.805-20.554 5.629a10.813 10.813 0 0 0-4.312 7.865c-.051.732-.025 51.993-.025 51.993a.389.389 0 0 0 .778 0v-50.93a9.9 9.9 0 0 1 4.637-8.711c1.982-1.255 1.7-.97 19.511-5.056a7.561 7.561 0 0 1 1.153-.219 3.974 3.974 0 0 1 3.646 1.884c1.107 1.829.685 14.033 1.2 14.409a.38.38 0 0 0 .627-.29c-.514-12.991-.326-13.206-1.197-14.582zm3.264-.801c-.031-.5-.808-.5-.777 0l.918 14.926c.03.5.809.5.778 0-.06-.97-.837-13.618-.919-14.926z"></path><path d="m160.275 158.725-4.815-6.249a1.172 1.172 0 0 0-1.559-.115l-2.374 1.831a11.143 11.143 0 0 0-4.739-3.072c.46.308.949.736.96 1.17a12.727 12.727 0 0 1 3.158 2.381l-4.661 3.594c-.77-1.093-2.525-3.677-2.534-5.014-.28-.163-.469-.285-.469-.285s.564 1.4.014 1.7a19.914 19.914 0 0 0 2.366 4.078l-1.946 1.5a1.169 1.169 0 0 0-.294 1.521l4.677 5.911a1.17 1.17 0 0 0 1.622.4l10.365-7.547a1.171 1.171 0 0 0 .229-1.804z" style="fill:#d1a9ff"></path><path class="b" d="M147.911 150.976c.26-.483-.428-1.793-4.4-1.9a6.31 6.31 0 0 1-2.552 3.8c1.868 2.876 3.072 2.065 2.278.1 2.246 1.451 2.864 1.14 2.985.957.46-.689-.459-1.723-.459-1.723s1.338.956 1.722.613c.817-.728-.483-1.653-1.464-2.13.216.091 1.642.743 1.89.283zm-31.778-14.287c.793.578.2 2.017-.409 2.838-.133.182-.277.066.209.294a.231.231 0 0 1 .039.031c.417-.581 2.339-3.323 1.678-3.687-.499-.276-1.15.191-1.517.524zm-.596.62a3.838 3.838 0 0 0-1.243.764c-.4.32-.882-.244-.527-.565.538-.49 1.51-1.189 2.185-.923.734-2.8-.739-2.662-2.129-.4.406-2-.7-3.381-2.6 1.48l.089.043a4.834 4.834 0 0 1 1.551.655l2.149 1.016a.324.324 0 0 1 .043-.249c.472-.648.996-1.901.482-1.821z"></path><path class="f" d="M132.27 155.3h-.209c-.693.432-1.214.329-4.975.347a3.386 3.386 0 0 0 3.013 2.7.389.389 0 0 1-.207.75 4.179 4.179 0 0 1-3.6-3.447l-6.17.037a.4.4 0 0 1-.386-.378c-1.473.078-6.8.7-8.9 5.6-2.45 5.716 6.838 13.37 6.838 13.37s4.592-.1 5.919-1.021c0 0-6.226-8.062-4.389-11.124 1.457-2.427 3.394-2.828 5.506-1.775-.774-.843-1.564-1.676-2.412-2.441-.373-.336.179-.884.549-.55 6.595 5.948 15.171 19.4 15.111 19.906 1.067.084 4.083.194 5.333-1.056z"></path><path class="g" d="M119.354 150.449c.086 2.578.409 4.964.385 4.863a.4.4 0 0 0 .386.378l6.17-.037a4.164 4.164 0 0 0 3.6 3.447.389.389 0 0 0 .207-.75 3.39 3.39 0 0 1-3.013-2.7l3.723-.023a1.966 1.966 0 0 0 1.907-1.073c.351-.782.218-.81-1.659-7.673a109.772 109.772 0 0 0 9.235 6 .588.588 0 0 0 .672-.012 6.337 6.337 0 0 0 2.576-3.894.389.389 0 0 0-.1-.379c-3.282-2.719-12.926-10.139-17.042-11.146.177.594.262 1 .24.9.132.068 5.253 1.762 16.087 10.662a5.526 5.526 0 0 1-2.111 3.156c-3.218-1.655-11.6-7.646-14.475-9.758-.405-.3-.793.379-.393.672.1.073 3.387 2.438 4.311 3.091.09.327 1.94 7.033 2.015 7.362a1.064 1.064 0 0 1-.683 1.256c-.242.083.238.046-10.917.118-.567-5.251-.835-10.57 1.936-15.073.511-.826.219.01.266-1.687a1.261 1.261 0 0 0-.2.2 14.27 14.27 0 0 0-2.166 4.177 6.263 6.263 0 0 1-1.854.976c-1.837.5-3.093-.34-2.348-3.247a.407.407 0 0 0-.178-.439c-.488-.229-.347-.1-.209-.294 1.662-2.247.51-4.261-1.957-2.019a.387.387 0 0 0 .527.565 5.464 5.464 0 0 1 1.052-.708c.269-.092.494-.182.33.568a3.719 3.719 0 0 1-.551 1.094c-.1.136-.143.2-.116.357-3.207-1.516-3.545-1.857-4.037-1.6s-.9 1.486-1.055 2c-2.022 6.906 4.777 12.076 9.439 10.67zm-7.63-3.815a7.739 7.739 0 0 1-.4-8.162c-.039.023.03.017.1.044.319.126.621.323.932.47l2.932 1.386c-.287 1.318-.324 2.963.973 3.73a3.759 3.759 0 0 0 3.711-.4 23.121 23.121 0 0 0-.637 5.943c-2.643.898-6.004-.745-7.611-3.011zm-8.004-55.702c-12.631-4.423-12.834-23.08-.273-27.777.463-.172.252-.921-.206-.75-13.4 5.007-13.026 24.619.273 29.277.478.167.659-.592.206-.75zM72.912 152.27c-6.191-1.922-6.591-2.052-6.718-2.073s-9.372.216-19.335.451a.457.457 0 0 0-.375.286c-.035.1-8.83 25.126-8.955 25.49s-.181.173 6.608 5.262c.148.11-.559.182 8.107-1.339a.387.387 0 0 0 .272-.272c.2-.626 6.526-20.866 6.585-21.061l13.937.45a.393.393 0 0 0 .389-.389c-.245-6.816-.121-6.683-.515-6.805zm-6.817-1.3 4.549 1.412c-21.231 1.211-16.2.955-17.882.955l-4.223-1.949zM44.111 180.7l-5.748-4.31c.037-.105 8.029-22.86 8.728-24.819 7.653 3.532 4.71 2.223 5.4 2.5-8.423 26.79-7.857 25.096-8.38 26.629zm7.71-1.064-6.921 1.221c9.2-29.3 8.1-25.811 8.37-26.594l5.088 4.477c-7.103 22.825-6.237 19.892-6.537 20.895zm7.131-21.4-4.695-4.136c.1-.006 17.819-1.017 18.177-1.043.062 1.737.2 5.481.2 5.616zm79.008 19.043c.062-.522-8.5-13.937-15.111-19.906-.37-.334-.923.214-.549.55 3.16 2.85 9.35 10.11 14.942 19.517a.392.392 0 0 0 .718-.161zm4.581.492a20.166 20.166 0 0 1-4.963.6s-3.879-.408-4.287.1.408 2.959 9.492 1.939c2.658-.301 1.562-3.104-.242-2.639zm-19.902-3.371a20.117 20.117 0 0 1-4.963.6s-3.879-.407-4.287.1.408 2.96 9.492 1.938c2.658-.298 1.56-3.1-.242-2.638zm1.63-46.073c1.692 1.033.658 3.852.658 3.852 2.067-1.127 2.255-.282 1.785.845a1.866 1.866 0 0 1-1.409 1.221s.09.24.224.611c5.162.483 5.631-2.292 5.722-3.029.1-.817-2.245-.868-2.245-.868 3.2-1.738 2.69-3.737-.1-2.806 0 0 2.45-1.225 1.787-2.093s-4.44-.612-6.431.1a3.173 3.173 0 0 0-2.017 1.94 2.443 2.443 0 0 1 2.026.227zm-2.295 1.898c.45.225.213.524.521.7a.391.391 0 0 0 .532-.139c.195-.373-.276-1.208-.847-1.314a.389.389 0 0 0-.206.753zm-1.103 2.154c.583 0 .583-1.075 0-1.075s-.582 1.075 0 1.075zm-2.227 2.515c1.373.49 3.743-.732 3.1-1.377-.44-.442-1.183.958-2.6.7-.259-.048-.654-.211-.768.2a.4.4 0 0 0 .268.477zm35.592 18.799-.418 7.372-9.08-.169a.389.389 0 0 0 0 .777l9.446.177a.4.4 0 0 0 .389-.389l.441-7.768c.028-.494-.749-.499-.778 0z"></path></g></g></svg>