<svg xmlns="http://www.w3.org/2000/svg" viewBox="0 0 250 250" height="250" width="250"><g transform="matrix(0.625,0,0,0.625,0,0)"><g transform="matrix(2,0,0,2,0,0)"><defs><style>.a{fill:#ffceb6}.b{fill:#5bbd8f}.d{fill:#ff9f48}.f{fill:#86f2aa}.g{fill:#ac47f5}.h{fill:#ff8684}.i{fill:#1d1d1b}</style></defs><path class="a" d="M111.623 37.509a5.646 5.646 0 0 0-3.45.139c-.677.223-.389-.3-.654-2.181a13.765 13.765 0 0 0-1.923-5.709c-2.257-3.308-9.415-4.185-11.965.56-.117.431 1.588-1.058 1.827-.34.238.751-1.325.609-1.656 1.6a.469.469 0 0 1-.746.082 22.765 22.765 0 0 0-.81 3.129c-1.088 5.388-.509 9.764 4.821 11.174 3.631.964 4.735.275 4.69 1.23a21.738 21.738 0 0 0 .917 6.891c.108.309.453 1.165.778 1.165.006 0 .017.006.023.006a5.592 5.592 0 0 0 2.908-1.375c.872-3.291 2.671-3.026 2.722-3.383.085-.61-.393-4.325-.477-5.062-.744-6.347-.805-4.444 1.647-4.892a3.649 3.649 0 0 0 2.022-1.213c.382-.54-.257-1.364-.856-1.64z"></path><path class="b" d="M62.371 48.274c-.124-.593-1.034-.341-.91.252a5.856 5.856 0 0 1-1.261 4.668c-2.163 2.85-5.771 3.653-9.289 4.287 3.45-3.348 1.182-8.7.288-7.557-1.333 1.7-2.587 3.4-2.531 5.56 0 .1.185 2.543.17 2.384a17.476 17.476 0 0 0-6.676 2.437c2.458-4.405 1.177-9.542-1.5-13.863-.229-.37-.922-.253-.875.235.42 4.413-2.892 11.79.7 14.6.368.276.46-.08-.17.652a12.1 12.1 0 0 0-2.566 5.266 12.025 12.025 0 0 0-2.251-5.346c-1.161-1.4-2.69-2.323-6.306-4.838-.406-.282-.864.258-.646.646 2.479 4.421 1.161 9.926 8.854 11.544-.717 6.672 2.03 12.1.123 24.273-.093.593.817.846.911.253a59.716 59.716 0 0 0 .076-17.651.408.408 0 0 0 .429-.293c4.621-1.691 7-6.453 7.944-11.033.088-.417-.464-.852-.787-.458-2.573 3.082-6.613 4.976-7.821 9.189-1.242-20 16.246-11.169 22.747-19.817a6.766 6.766 0 0 0 1.345-5.39M32.026 64.4c-.875-1.79-1.233-3.769-1.938-5.625 4.588 3.167 5.843 3.761 6.9 9.366-2.472-.582-3.8-1.381-4.961-3.741m9.6 5.426c1.233-1.263 2.648-2.343 3.916-3.564-1.033 3.581-3.041 7.063-6.564 8.514a8.54 8.54 0 0 1 2.648-4.95m8.25-16a9.8 9.8 0 0 1 1.567-2.683 5.148 5.148 0 0 1-1.673 6.089 7.341 7.341 0 0 1 .106-3.406M32.865 79.734a17.432 17.432 0 0 0-3.711-5.026.393.393 0 0 0 .118-.258c.214-.343-.265-.087.528-1.034 2.174-2.6.3-5.483-1.967-7.926a.476.476 0 0 0-.786.2 10.928 10.928 0 0 0 1.027 8.121 9.685 9.685 0 0 0-4.768-1.926l-.082-.112a8.4 8.4 0 0 0-5.3-5.149 3.859 3.859 0 0 0 1.433 4.04c1.729 1.4 3.152 1.085 2.066 1.233a7.483 7.483 0 0 0-5.983 3.769c-.1.4-2.755 1.988-.593 8.626.582 1.778 4.471-3.754 1.814-8.473a.447.447 0 0 0-.129-.147 7.1 7.1 0 0 1 6.917-2.818 5.433 5.433 0 0 0-3.8 4.263 14.7 14.7 0 0 1-.405 3.211c-.135.359.258.652.581.582a8.024 8.024 0 0 0 6.042-7.34 13.476 13.476 0 0 1 5.972 6.206c1.045 1.992-.469-.975-3.441.987-1.233.8-2.161 2.155-3.6 2.619a.475.475 0 0 0 .123.927c1.72.106 3.447.288 5.167.317 2.119.038 2.033-1.46 2.713-2.29a.456.456 0 0 0 .07-.129 28.215 28.215 0 0 1 1.063 11.339.47.47 0 0 0 .94 0c.5-3.842-.049-9.9-2.009-13.817m-17.38 3.453c-.652-2.208-1.045-4.774.47-6.664a6.588 6.588 0 0 1-.47 6.664m4.88-3.429c.264-1.532-.14-2.762.957-4.292a4.549 4.549 0 0 1 3.593-1.885 7.073 7.073 0 0 1-4.55 6.177m7.4-12.941c1.442 1.6 2.745 3.762 1.6 5.607-.171.276-.388.517-.576.763a9.989 9.989 0 0 1-1.027-6.37"></path><path d="M45.507 93.592c-15.457-.18-14.579-.028-14.579.475-.168 17.928-.341 17.14.311 17.14 11.538.169 11.262.308 11.35-.189C46.1 93.6 46.342 93.592 45.507 93.592m-3.4 15.09c-.117.581-.234 1.162-.346 1.738-13.626-.21-8.54-.117-10.041-.147.037-3.585.089-9.995.153-15.736h13.065l-2.831 14.145m20.669-14.75c-.164-.656-.971-.166-5.208-.334h-7.575c-2.75.119-1.969-1.238-3.024 6.1-1.649 11.7-1.89 11.844-1.139 11.844 15.384.159 14.509.012 14.562-.347 2.538-18.036 2.455-17.015 2.384-17.263" style="fill:#e59e70"></path><path class="d" d="M69.687 42.449a7.013 7.013 0 0 1-1.987 1.762 36.443 36.443 0 0 0 1.409-3.8.474.474 0 0 0-.786-.458 27.361 27.361 0 0 1-3.604 2.647l.511-3.4a.475.475 0 0 0-.787-.458C58.3 44.02 54.354 46.251 59.482 50.57c.464.387 1.133-.276.663-.664-4.219-3.526-1.554-4.97 3.976-9.653-.6 3.973-1.366 5.25 3.569 1.433a37.587 37.587 0 0 1-1.368 3.3c-.158.329.112.851.535.693a8.341 8.341 0 0 0 2.724-1.721 8.579 8.579 0 0 1-6.03 7.193.472.472 0 0 0 .252.91c7.527-2.114 7.573-11.84 5.884-9.612"></path><path class="b" d="M53.64 86.816a24.285 24.285 0 0 0-.347-3.106c-.5-2.685-1.845-3.843-4.744-5.854-.317-.224-.846.152-.693.534.746 1.826 1.438 3.687 2.26 5.478 2.429 5.3 2.918-.682 2.613 9.236a.47.47 0 0 0 .94 0c.048-1.643.1-4.649-.029-6.288M79.105 59.53a14.187 14.187 0 0 1-4.75 5.243c-3.314 2.349-7.082 3.7-10.422 6.007 1.386-4.82 5.132-5.292 4.01-12.6 0-1.535-1.117-1.081-1.016-.441.357 2.069-1.645 2.781-4.586 6.547-1.543 1.988-1.93 3.986.429 7.058a.5.5 0 0 0 .2.153 14.236 14.236 0 0 0-5.27 7.416c-.617-2.619-2.666-4.88-4.709-6.618-1.509-1.289-1.566 5.924 2.971 10.023a.493.493 0 0 0 .81-.3c-1.376 15.13-.835 9.963-1.039 11.632-.071.6.869.593.939 0 .3-2.407.592-12.654 2.261-14.879a8.008 8.008 0 0 0 5.725.974c2.366-.352 3.681-2.266 4.914-4.11a12.384 12.384 0 0 0 1.815-3.623.474.474 0 0 0-.787-.458c-4.024 4-6.889 1.481-10.27 4 3.234-4.809 9.367-6.454 14.1-9.671a15.828 15.828 0 0 0 5.526-5.924 6.373 6.373 0 0 1-.852-.423M56.769 81.925c-.052.105.1-.049-.147-.282a10.874 10.874 0 0 1-3.54-8.021c2.331 2.137 4.539 4.991 3.687 8.3m4.3-5.778c2.633-1.774 4.9-.164 8.755-2.754-.547 1.049-2.3 3.881-3.6 4.762-1.624 1.093-5.312 1-6.853-.235a5.7 5.7 0 0 1 1.7-1.773"></path><path class="d" d="M88.365 54.269c-.395-.526-.714.005-2.907.616a21.088 21.088 0 0 0 .957-2.207.475.475 0 0 0-.581-.582 22.03 22.03 0 0 0-2.613 1.051l.124-2.63a.476.476 0 0 0-.711-.405c-10.494 5.4-3.577 12.567 2.437 9.488 2.552-1.3 3.618-4.874 3.294-5.331M59.177 67.4a17.571 17.571 0 0 1-1.879.358c.082-.54.158-1.086.24-1.626.047-.317-.2-.711-.581-.582-.575.206-1.163.382-1.756.54.071-.628.147-1.256.218-1.884.222-1.851-5.814 2.119-4.064 5.267a4.788 4.788 0 0 0 5.326 1.937c1.574-.6 3.8-3.978 2.5-4.01"></path><path d="M107.782 158.615c-9.718-1.448-5.186-.769-18.46-2.748l.569-4.134c-.114-.029-1.023-.273-.9-.24-.637 4.669-.853 5.151-.311 5.231q3.285.485 6.57.975c13.813 2.053 13.334 2.169 13.423 1.456.188-1.527.382-3.053.57-4.574-.294.035-.611.058-.952.071-.176 1.309-.34 2.636-.505 3.963m22.139-61.794c-.447-.464-3.841-.6-7.246-.622a24.276 24.276 0 0 1-5.179 8.455 22.771 22.771 0 0 0 7.663-1.855c3.787-2.02 5.7-5.015 4.762-5.978m13.528 49.528c-31.795-43.559-28.256-39.382-29.241-38.5-.791.706.222-2.23-6.412 22.84-.995 3.759-.855 3.269-.869 3.312a.472.472 0 0 0 .91.252c.885-3.338 6.443-24.465 6.77-25.677.055-.215-.207-.469 2.4 3.083 29.629 40.629 25.749 34.137 25.025 36.5.611.106 2.91.576 3.192.623.637.113.435 1.058-.169.863-1.056-.171-2.107-.364-3.158-.552-.047 4.632 6.694 4.527 6.694.106a3.4 3.4 0 0 0-5.138-2.848m-47.297-4.668c-2.626-4.023.7-.454-10.631-10.606-27.664-24.777-21.648-19.345-22.477-20.146-.043-.045-.008-.078-.288 1 .132.118 16.635 14.915 20.921 18.754 12.837 11.508 10.825 9.735 12.037 10.8zm-21.013-23.207c5.473 4.944 13.5 12.2 16.923 15.29-.2-.581-.382-1.175-.552-1.768-5.291-4.791-27.373-24.712-27.544-24.884-.088.341-.171.682-.259 1.022 1.54 1.392.287.257 11.432 10.34m-28.26 28.008c-.106.159-1.456 2.85-1.515 2.965-.276.54-1.086.065-.81-.475l1.491-2.924a3.308 3.308 0 0 0-3.024.387 3.386 3.386 0 0 0 1.92 6.13 3.348 3.348 0 0 0 1.938-6.083" style="fill:#ffd35c"></path><path class="f" d="M129.778 76.769c1.386.916 2.771 1.838 4.151 2.754-.4-4.071-4.087-3.524-6.858-4.3.853 4.181 2.351 5.741 6.635 5.549.106-.292.948.369-4.41-3.182-.493-.335-.023-1.151.482-.817"></path><path class="f" d="M132.426 81.707c-.279.405-2.554 1.315-4.968.946a.472.472 0 0 1 .253-.91 6.739 6.739 0 0 0 3.053-.265 5.136 5.136 0 0 1-2.478-1.344.4.4 0 0 1-.311-.071c-.524-.373-.947.032-4.6 1.7 5.218 4.19 8.96 2.8 10.328-.064a10.219 10.219 0 0 1-1.274.011m.003-10.084c-.258-.141-.764-.335-1.2-.582-.3 1.415-.5 3.083.381 4.2a4.51 4.51 0 0 1 2.314 1.539 5.484 5.484 0 0 0-1.168-3.13c-.423-.434.246-1.1.663-.663 1.66 1.715 1.641 5.677 1.4 6.077a12.078 12.078 0 0 1 .094 1.474c2.353-1.2 3.243-5.858-2.483-8.919"></path><path class="g" d="M113.764 25.991c.164.353.5.634.63.992a1.253 1.253 0 0 0 1.38-1.022 4.5 4.5 0 0 0-1.451-4.057c-1.06-.686-3.353-.333-4.584-.076a9.7 9.7 0 0 1 4.025 4.163m-14.096 42.37c2.725-3.4 3.912-8.218 6.206-12.489.067-.8.117-.643 0-.593-2.075 1.239-3.416 1.22-4.14-1.04-4.3 4.715-7.113 12.5-9.072 18.579a15.018 15.018 0 0 0 7.011-4.457m11.903 7.398a16.387 16.387 0 0 0 2.43 3.958c.371-.241.852-.558 1.422-.957-.249-.4-1.644-2.865-2.432-4.357a19.143 19.143 0 0 1-1.42 1.356m2.107-2.096a80.249 80.249 0 0 0 2.537 4.527 34.532 34.532 0 0 0 6.671-6.412 83.5 83.5 0 0 0-5.191-13.111c.214 5.366-.418 10.8-4.017 15"></path><path class="g" d="M116.314 83.815c-4.194-4.744-4.381-5.58-5.438-7.782-5.835 4.576-14.527 6.858-21.865 7.683a3.364 3.364 0 0 0 .933 2.219c5.14 5.443 13.791 5.838 21.238 5.12a43.213 43.213 0 0 0 10.933-2.09 27.485 27.485 0 0 1-5.8-5.15"></path><path class="g" d="M100.114 80.574c8.645-2.62 16.035-7.566 17.053-16.541.476-4.246-.555-10.538-4.64-11.719-3.27-.956-5.263 2.346-6.871 5.772-5.326 11.487-4.086 13.438-18.912 17.486-7.188 1.941-7.265 1.007-6.787 1.756 3.374 5.615.089 6.318 2.954 6.159a75.389 75.389 0 0 0 17.2-2.913"></path><path class="h" d="M90.431 105.722c-2.437-3.958-.874-8.177 7.152-6.405 2.157-2.881 4.588-5.453 5.453-8.1-4.57-.377-10.9-2.626-13.532-5.849-10.556 4.244-13.987 13.432-12.236 20.691 5.531-.135 4.124-.311 13.017-.524m.634.927c-17.07.408-12.753.307-13.475.323 1.8 5.849 6.887 10.722 12.588 14.057.006-.147 0-.3.006-.446a37.627 37.627 0 0 1 2.443-12.143 17.562 17.562 0 0 1-1.562-1.791"></path><path class="h" d="M122.347 88.852a44.933 44.933 0 0 1-11.171 2.2c-12.538 1.168-4.3-2.644-11.443 6.958-2.961 4-5.055 6.246-6.8 10.9-6.211 16.677 2.274 34.744 8.445 37.071 2.229.839 4.229.035 4.794-2.473 1.23-5.477-3.326-10.192-3.169-18.95.314-16.5 20.379-16.362 19.894-35.353z"></path><path class="b" d="M180.292 168.65a24.547 24.547 0 0 0-5.067 9.265.473.473 0 0 0 .91.253 23.482 23.482 0 0 1 4.827-8.849c.393-.458-.271-1.127-.67-.669m6.808-.312a23.345 23.345 0 0 0-8.12 9.871c-.241.552.575 1.033.81.475a22.476 22.476 0 0 1 7.78-9.535c.5-.341.029-1.157-.47-.811m7.19.462a30.714 30.714 0 0 0-9.794 8.55c-.364.487.452.957.811.475a29.627 29.627 0 0 1 9.459-8.214c.534-.288.059-1.1-.476-.811M5.691 171.022c-.5-.335-.98.481-.476.81a10.208 10.208 0 0 1 4.522 8.15.47.47 0 0 0 .939 0 11.207 11.207 0 0 0-4.985-8.96m3.159-3.5c-.417-.44-1.08.224-.663.664a18.386 18.386 0 0 1 4.556 8.561c.135.593 1.04.34.91-.253a19.383 19.383 0 0 0-4.8-8.972m5.041 1.163.3 6.729c.03.6.969.6.94 0l-.3-6.729c-.023-.6-.968-.6-.939 0m60.671-.975a40.874 40.874 0 0 0-3.006 7.551.472.472 0 0 0 .91.252 39.655 39.655 0 0 1 2.912-7.327c.276-.54-.534-1.016-.816-.476m3.447 1.49a28.343 28.343 0 0 0-3.065 6.307c-.194.576.71.822.91.253a27.244 27.244 0 0 1 2.971-6.078c.329-.517-.482-.992-.816-.482m3.523 2.233a.484.484 0 0 0-.646.17c-.688.99-2.931 5.138-1.767 5.455a.476.476 0 0 0 .581-.329c.851-4.042 2.736-4.769 1.832-5.3m23.246-1.993c-.441-.416-1.11.247-.664.664a14.621 14.621 0 0 1 3.811 5.936c.194.57 1.1.329.91-.252a15.729 15.729 0 0 0-4.057-6.348m3.453-1.767c-.405-.453-1.069.217-.664.664a14.4 14.4 0 0 1 3.37 6.711c.123.593 1.028.341.91-.252a15.34 15.34 0 0 0-3.616-7.123m4.756-.429q.212 3.487.428 6.976c.036.6.981.6.94 0q-.211-3.488-.429-6.976c-.035-.6-.975-.6-.939 0m5.989 3.424a.484.484 0 0 0-.647.17c-2.566 3.52-2.93 3.751-2.342 4.1.523.308.583-.1 3.159-3.628a.478.478 0 0 0-.17-.646"></path><path class="i" d="M93.256 106.41a37.03 37.03 0 0 0-3.218 13.99A37.712 37.712 0 0 0 91.53 132c1.766 6.151 7.085 16.9 13.088 14.845 2.789-.958 2.912-4.569 2.524-7.006-.968-6.012-8.237-16.525 1.492-26.845 4.668-4.964 15.088-11.068 15.2-23.17a11.894 11.894 0 0 1-.935-.436c.275 17.943-19.882 18.821-20.168 35.226-.158 8.8 4.682 13.444 3.453 18.918-.562 2.5-2.429 3.083-4.669 2.238-5.888-2.221-9.884-14.5-10.434-21.279-1.483-18.643 9.957-25.538 12.56-33.211-1.611-.119-.358-.487-2.161 2.549-2.626 4.422-5.249 6.528-7.762 11.649-1.07.028-29.465.7-29.488.7.355-1.4 4.667-18.5 4.75-18.86a.473.473 0 0 0-.91-.253c-9.123 36.3-7.142 30.09-9.764 35.072a29.786 29.786 0 0 0-33.111 4.9c-22.568 20.173-5.055 56.717 23.4 53.978 13.835-1.337 25.786-12.166 27.573-26.111 1.476-11.632-3.94-24.581-17.028-32.324 2.341-4.563 1.585-2.178 4.134-12.571l.722-2.871c25.42-.58 28.607-.714 29.265-.728m-24.889 25.107c14.412 18.028 5.506 42.345-15.331 47.743-27.363 7.082-48.92-26.235-30.3-48.383 8.7-10.359 23.143-13.861 35.112-7.921l-2.172 4.251A24.258 24.258 0 0 0 29 131.306c-18.416 16.433-4.085 46.159 19 43.949 23.348-2.241 32.525-33.231 8.537-47.625q1.084-2.122 2.173-4.245a31.691 31.691 0 0 1 9.671 8.132m-23 17.932c.429-.843 10.345-20.235 10.722-20.974a26.178 26.178 0 0 1 13.287 18.473c4.119 23.78-27.9 38.364-43.157 17.327-14.79-20.44 7.509-46.42 29.024-36.228-.544 1.047-10.648 20.83-10.7 20.932-.258.535.552 1.01.828.47m131.243.687c-.9-24.142-27.729-40.351-48.729-25.1.188.252.37.505.558.763 12.461-9.078 29.592-7.531 40.18 5.713 14.374 17.981 5.5 42.352-15.331 47.743-20.763 5.375-40.562-13.271-36.722-34.613l4.7.827a25.39 25.39 0 0 0 2.56 16.347c12.739 23.936 47.854 13.426 47.062-11.685-.757-19.707-22.581-32.812-39.622-20.457.188.253.37.5.558.764 16.276-11.814 37.4.683 38.13 19.693.738 22.056-29.007 34.11-43.485 14.139a24.437 24.437 0 0 1-4.269-18.637c.631.111 18.765 3.3 19.664 3.465 4.328.773 2.974.482 3.218.563.593.106.845-.8.252-.91-.281-.046-2.724-.481-3.335-.587-.048-.007-18.782-3.31-19.611-3.452a23.739 23.739 0 0 1 5-10.164c3.7-4.391 4.2-2.866 3.123-4.316a24.954 24.954 0 0 0-9.065 14.315l-4.7-.828A29.424 29.424 0 0 1 123 130.871c4.657-5.551 5.325-3.693 4.145-5.279a30.751 30.751 0 0 0-11.32 17.962c-.481-.088-5.079-.891-5.12-.9-.594-.106-.846.8-.253.91.805.139 5.073.89 5.191.91-4.974 28.562 28.925 48.71 51.189 28.472a29.39 29.39 0 0 0 9.794-22.806M115.78 25.961c1.227 1.163 6.306 5.808 8.972 5.672 3.047-.158 1.391-3.845 1.391-3.845 8.338 2.46 11.432-4.434 10.634-7.27s-2.4-1.227-2.4-1.227a8.1 8.1 0 0 1-10.31 2.243c-5.461-2.66-9.055-.522-10.041.206 1.283.54 2.078 2.925 1.756 4.221M91.248 30.3s-.858 2.043.328 3.165c-.787 3.325-1.327 7.569.6 10.4 1.807 2.664 5.679 3.657 8.9 3.494a33.506 33.506 0 0 0 .106 3.682 15.028 15.028 0 0 0 .493 3.018c.017.064.041.129.058.193.736 2.267 2.07 2.276 4.14 1.04a.346.346 0 0 1 .076-.047 10.568 10.568 0 0 1 .259-1.3c-.529.411-2.1 1.427-2.731 1.216 0 0-.1-.028-.1-.03-1.4-.777-1.4-6.635-1.327-8.255.045-.959-1.313.086-4.962-.881-5.664-1.5-5.922-6.312-4.639-12.031a19.06 19.06 0 0 1 .629-2.273.467.467 0 0 0 .745-.082 2.2 2.2 0 0 1 .969-.9c.21-.092.849-.194.687-.7-.238-.715-1.309-.108-1.826.341 2.516-4.685 9.531-3.724 11.832-.353a15.05 15.05 0 0 1 1.955 6.741c.053.612-.1 1.416.564 1.2 3.427-1.127 4.667.258 3.905 1.415a2.79 2.79 0 0 1-1.844.9c-2.437.476-2.159-1.21-1.4 5.226a44.857 44.857 0 0 1 .423 4.821c-.027.187-.1.133.329.006.812-.271.886 1.04-.135-7.475 4.607.349 8.049-8.122 5.137-15.807-4.2-11.154-21.7-7.826-25.013-.058-2.8 6.482 1.85 3.329 1.85 3.329"></path><path class="i" d="M28.62 114.371c1.037.536.16.352 22.448.288 3.076-.012 9.224-.029 9.077-.029a.47.47 0 0 0 0-.94c-32.408.1-30.287.169-30.844-.035-1.637-.6-1.4-2.154-1.291-3.306.895-8.428.642-7.046 1.027-7.046 5.756.035 32.767.124 32.706.124a.47.47 0 0 0 0-.939c-3.977 0-33.2-.126-32.706-.124-.239 0-.25.622.2-3.435 2.322.014 34.792.106 34.1.106a.47.47 0 0 0 0-.94c-9.691 0-33.372-.131-34-.111q.421-3.981.851-7.962c.377-3.468 2.232-1.78 36.035-1.78a.47.47 0 0 0 0-.939c-38.2-.47-36.469-1.886-37.133 4.093-2.366 22.054-2.111 19.65-2.137 19.94a3.166 3.166 0 0 0 1.667 3.035m81.88 37.597c-1.86-1.637-10.025-6.025-17.38-4.527-5.534 1.126-8.72 2.865-3.236 4.28 3.644.936 21.88 5.139 21.567 1.386-.059-.682-.452-.7-.951-1.139m-71.111-14.227c-.112-.17-.223-.34-.329-.511-.329-.5-1.145-.035-.81.476 1.189 1.829 2.533 3.9 2.648 4.081.329.5 1.145.035.81-.476-.769-1.192-1.544-2.378-2.319-3.57m115.279-.07q-1.692 2.517-3.377 5.038c-.34.5.477.974.811.475q1.692-2.52 3.377-5.044c.34-.5-.477-.974-.811-.469m-9.882 20.915c-.114 3.595-1.64 4.467-.851 4.937 1.051.6 1.751-3.51 1.8-4.937.018-.605-.928-.605-.945 0m7.03-5.502a.477.477 0 0 0-.111.863c2.265.984 2.412 2.234 2.977 1.609a.478.478 0 0 0 0-.664c-.79-.835-2.44-1.921-2.866-1.808M51.5 161.24a.473.473 0 0 0 .817-.476c-3.155-4.616-3.232-5.048-3.77-4.738a.481.481 0 0 0-.17.645q1.568 2.282 3.123 4.569m-12.452-6.16c-1.033.969-2.072 1.938-3.106 2.906a.47.47 0 0 0 .664.664c3.155-2.956 3.574-3.118 3.106-3.57a.484.484 0 0 0-.664 0"></path><path class="a" d="M80.519 79.555a6.911 6.911 0 0 0-1.179-1.8 14.255 14.255 0 0 0-6.552.293c-5.3 2.006-5.421 7.517-2.426 5.567a4.424 4.424 0 0 0 1.192-1.163c.282-.429 1.045-.158.863.364-1.169 3.305.98 2.771 2.666.282.27-.4.909-.282.857.44-.154 1.844.73 1.863 2.261.746 1.721-1.252.826-1.256 2.3-1.256h.364a12.031 12.031 0 0 0-.346-3.473z"></path><path class="i" d="M101.159 34.3a.886.886 0 0 0 0 1.762c1.06 0 1.051-1.762 0-1.762m-6.2.24a.8.8 0 1 0-1.6 0 .8.8 0 1 0 1.6 0m9.647-1.861c-.811-1.99-2.887-2.44-2.842-1.533.022.463.366.42.8.587a2.319 2.319 0 0 1 1.144 1.21.468.468 0 0 0 .9-.264m-4.153 5.778c-2.117 1.778-4.115 1.475-4.892.7-.452-.405-1.115.259-.663.664 1.158 1.035 3.293 1.357 5.542-.182a2.243 2.243 0 0 1-1.226 2.278c-.54.27-.065 1.086.475.81 2.462-1.236 1.889-5.221.764-4.268"></path><path class="f" d="M142.156 69.089c-3.728-4.171-7.519-2.368-14.856-7.081-8.766-11.906-20.012-16.417-21.35-6.782-.427 3.141 1.3-4.99 6.829-3.846a7.914 7.914 0 0 0-1.045-.405c5.333.442 11.553 7.261 14.762 11.491a10.962 10.962 0 0 1-.095 1.4c-2.348-2.516-9-9.4-11.493-11.275a7.689 7.689 0 0 1 1.849 2.921c3.648 3.4 6.34 6.277 9.451 9.517a17.413 17.413 0 0 1-3.324 6.723 34.534 34.534 0 0 1-6.67 6.412c-3.107-5.1-2.138-4.889-3.212-3.787.539 1.02 2.046 3.74 2.432 4.356-.571.4-1.046.723-1.421.958a16.229 16.229 0 0 1-2.432-3.958c-.247.211-.493.417-.751.617a14.722 14.722 0 0 0 2.7 4.174c2.709 3.275 6.413 7.718 10.3 9.3 10.28 4.36 26.468-11.616 18.326-20.733m-7.228 12.477a.455.455 0 0 1-.212.03 5.657 5.657 0 0 1-4.768 3.734c-2.954.314-5.507-1.43-7.786-3.335a.477.477 0 0 1 .094-.74c4.487-2.077 4.556-2.174 5.168-2.237-.73-1.22-2.158-5.489-.834-4.956a20.186 20.186 0 0 0 3.787.852 8.8 8.8 0 0 1 .287-5.249c.306-.365.834 0 .787.4a2.777 2.777 0 0 0 .288.146c7.886 3.944 6.8 9.957 3.189 11.35"></path><path class="i" d="M66.557 85.642c1.12 1.138 4.358 1.829 5.8.381 1.026.155 2.016-.683 2.718-1.444.571 2.5 3.1 1.194 4.927-.628h.963a.462.462 0 0 0 .452.317c17.425-.688 36.754-5.376 36.5-22.818-.133-10.491-7.153-12.583-10.6-7.891.017-.069.042-.112-.012.023-4.784 6.7-4.267 14.432-12.2 18.249C89.986 74.312 78.9 76.1 78.864 76.74c-3.839-.422-8.063.408-10.31 3.635-1.313-.949-3.3.131-3.059 2.777a4.105 4.105 0 0 0 1.062 2.49m20.2-10.076c6.814-1.855 11.561-3.078 14.808-8.3 3.7-5.98 5.426-16.558 10.974-14.955 4.1 1.219 4.791 7.545 4.316 11.79C115.177 78.934 96.868 82.68 82.023 83.3a6.22 6.22 0 0 0-.017-1.445c-.774-6.736-5.569-3.493 4.756-6.288m-17.821 5.958c2.931-5.093 10.5-3.784 10.4-3.775 1.227 1.227 1.544 3.531 1.527 5.261H80.5c-1.47 0-.689.113-2.3 1.257-.429.311-1.538 1.156-2.043.557-.39-.46-.157-1.775-.212-1.379a.475.475 0 0 0-.863-.365 7.138 7.138 0 0 1-.845 1.022c-1.6 1.646-2.727 1.351-1.821-1.3.182-.523-.581-.793-.863-.364-1.595 2.427-4.2 1.852-2.613-.911m-2.46.576c.238-1.047 1.107-1.334 1.521-.969.111.084.091-.048-.071.3-1.317 2.775.944 4.587 3.236 2.8a2.074 2.074 0 0 0 .317 1.31c-1.381 1-5.824.133-5-3.441"></path></g></g></svg>