<svg xmlns="http://www.w3.org/2000/svg" viewBox="0 0 250 250" height="250" width="250"><g transform="matrix(1,0,0,1,0,0)"><g transform="matrix(1.25,0,0,1.25,0,0)"><defs><style>.a{fill:#643cff}.b{fill:#9778ff}.c{fill:#ffffff}.d{fill:#ff465a}.e{fill:#fdb849}.f{fill:#ffd340}</style></defs><path d="M61.43 140.923c-1.761.667-3.825-.668-4.553-2.611a6.885 6.885 0 0 1 .123-5.585 45.591 45.591 0 0 1-11.655 2.914 11.253 11.253 0 0 0-.85 7.953 7.556 7.556 0 0 0 2 3.521 3.863 3.863 0 0 0 3.642.971c4.737-1.457 7.043-4.614 11.293-7.163zm42.495-17.302c-1.76.729-3.764-.607-4.553-2.489a7.031 7.031 0 0 1-.061-5.646 44.541 44.541 0 0 1-11.411 3.278 11.73 11.73 0 0 0-.546 8.135 7.268 7.268 0 0 0 2.125 3.461 3.846 3.846 0 0 0 3.642.789c4.551-1.579 6.737-4.857 10.804-7.528z"></path><path class="a" d="M108.478 109.719C81.767 123.075 55 136.673 27.07 148.511c-6.253 1.761-12.506-5.282-12.992-9.895A617.879 617.879 0 0 0 .237 59.939 9.885 9.885 0 0 1 5.761 48.83C34.476 38.631 63.8 28.614 94.212 20.358c4.431-1.457 13.234 3.642 13.78 9.835 2.064 22.826 4.128 45.591 6.617 68.3.791 4.791-2.003 9.769-6.131 11.226z"></path><path class="b" d="M112.97 113.362c-28.228 12.138-56.457 24.586-85.84 35.149-4.31 1.214-8.134-1.578-8.62-6.192A676.106 676.106 0 0 0 5.154 63.1a9.888 9.888 0 0 1 5.585-11.11C39.393 41.97 68.654 32.135 99.008 24c4.431-1.4 8.5 1.4 9.106 6.132 3.582 24.1 7.042 48.08 11.049 71.938.728 4.796-2.063 9.835-6.193 11.292z"></path><path class="a" d="M114.974 121.375C86.138 131.938 57.12 142.5 27.13 151.364c-6.01 2.368-5.22 9.9-2.489 11.292 15.541 8.135 31.325 16.33 47.656 24.04 2.853 1.335 8.681.91 12.869-.971 28.533-13.053 55.426-27.562 81.955-41.464 3.946-2 8.074-10.38 2.186-12.262-14.145-3.643-28.168-7.649-42.131-11.838-2.793-1.214-8.256-.668-12.202 1.214z"></path><path class="b" d="M115.824 114.576c-28.593 12.445-57.308 25.193-87.176 36.06-4.189 1.639-5.4 4.067-2.671 5.463 15.48 8.074 31.2 16.149 47.412 23.858 2.854 1.336 8.56.85 12.749-1.032 28.229-13.112 55-27.5 81.53-41.159 3.946-1.943 4.856-4.432 2.064-5.525-14.084-5.888-27.986-12.2-41.706-18.819-2.793-1.214-8.196-.728-12.202 1.154z"></path><path class="a" d="m130.758 125.2 8.377-3.46c-1.578-.728-3.157-1.518-4.735-2.246l-.728-.364a7.455 7.455 0 0 0-6.132-.243c-1.518.607-3.035 1.214-4.553 1.882-.182.061-.425.182-.607.243.668.364 1.336.667 2 .971 2.128 1.092 4.253 2.184 6.378 3.217zm10.077-2.672c-2.793 1.154-5.646 2.307-8.438 3.461 2.307 1.153 4.674 2.307 6.981 3.46 2.914-1.153 5.828-2.246 8.742-3.339-1.457-.728-2.914-1.457-3.946-1.943-1.093-.546-2.246-1.092-3.339-1.639zm7.528 4.978c-2.429.911-4.857 1.882-7.285 2.793 1.639.789 3.217 1.578 4.856 2.367 4.129-2.064 6.982-3.4 7.771-3.824-1.032-.486-2.428-1.214-3.885-1.882-.547.182-.972.364-1.457.546zM106.9 144.444c2.367 1.4 4.735 2.731 7.163 4.006 5.282-2.61 10.5-5.16 15.3-7.527l-5.828-3.461c-5.587 2.246-11.111 4.614-16.635 6.982zm-8.681-5.344c5.524-2.367 11.109-4.795 16.633-7.163a104.376 104.376 0 0 1-5.4-3.643 25.854 25.854 0 0 1-1.578-1.153c-5.524 2.368-11.049 4.8-16.573 7.164.911.607 1.821 1.274 2.732 1.881a39.513 39.513 0 0 0 4.186 2.914zm17.969-6.251a3427.338 3427.338 0 0 0-16.634 7.163c1.943 1.214 3.885 2.428 5.828 3.582a915.982 915.982 0 0 1 16.634-7.1l-3.825-2.368c-.607-.367-1.275-.853-2.003-1.277zM82.253 145.9c4.856-2.064 9.652-4.128 14.448-6.193-1.518-.971-2.975-2-4.432-2.974-.85-.607-1.7-1.154-2.549-1.7-5.161 2.185-10.321 4.371-15.542 6.5-.364.182-.789.3-1.153.485a43.69 43.69 0 0 0 3.885 1.639c1.761.726 3.521 1.515 5.343 2.243zm15.847-5.22c-.971.425-1.943.85-2.975 1.275-3.7 1.578-7.467 3.156-11.17 4.735 2.368 1.032 4.736 2.125 7.164 3.157 2.185-.972 4.431-1.943 6.617-2.914l6.192-2.732a71.335 71.335 0 0 1-2.853-1.7c-.975-.546-1.946-1.214-2.975-1.821zm-3.524 9.167c-.546.242-1.153.485-1.7.789 2.914 1.275 5.767 2.61 8.681 3.946 3.643-1.761 7.407-3.582 11.11-5.4a415.716 415.716 0 0 1-7.224-4.068 1727.536 1727.536 0 0 0-10.867 4.733zM65.8 152.761c1.4-.547 2.792-1.154 4.189-1.7 3.521-1.457 6.981-2.914 10.5-4.371-1.882-.789-3.825-1.579-5.706-2.368a88.507 88.507 0 0 1-3.521-1.578c-4.736 1.942-9.41 4.067-14.145 6.071 1.76.849 3.581 1.7 5.4 2.489zm16.453-5.343a1494.201 1494.201 0 0 1-14.692 6.071c1.822.789 3.582 1.518 5.4 2.368.85.364 1.7.789 2.55 1.153a318.774 318.774 0 0 1 13.963-6.374c-1.275-.547-2.489-1.154-3.764-1.7-1.21-.546-2.365-1.036-3.457-1.518zm-1.153 8.439c-1.335.607-2.732 1.274-4.067 1.882 2 .91 3.946 1.881 5.949 2.853.971.485 1.943.91 2.914 1.4 4.31-2 9.045-4.249 13.963-6.617-2.914-1.336-5.828-2.61-8.742-3.946a663.519 663.519 0 0 0-10.017 4.428zm35.149-24.465c3.1-1.336 6.192-2.672 9.288-3.946a91.98 91.98 0 0 0 3.582-1.518l-8.378-4.189q-5.737 2.368-11.474 4.917l2 1.457c1.643 1.032 3.282 2.187 4.982 3.279zm1.396.849c1.942 1.215 3.946 2.429 5.888 3.643l.911-.364c4.432-1.822 8.8-3.582 13.234-5.343-2.307-1.153-4.614-2.306-6.981-3.46-4.31 1.821-8.681 3.643-13.052 5.524zm7.345 4.554c1.518.91 2.975 1.76 4.493 2.61.425.243.85.486 1.335.728 5.16-2.549 9.835-4.856 13.6-6.738-1.7-.789-3.339-1.639-5.039-2.428q-7.195 2.823-14.389 5.828zm-81.954 22.522h.06c1.093.486 2.186 1.032 3.279 1.518 5.888-2.55 11.777-4.978 17.665-7.407-2.914-1.275-5.767-2.549-8.62-3.946-1.821.79-3.7 1.579-5.524 2.307a125.842 125.842 0 0 1-6.678 2.55 2.76 2.76 0 0 0-.182 4.978zm22.704-5.099a1105.88 1105.88 0 0 0-17.726 7.466c3.035 1.457 6.07 2.914 9.045 4.371 5.16-2.124 10.077-4.856 14.934-7.345l1.821-.911c-.971-.425-1.942-.91-2.974-1.335-1.64-.79-3.4-1.518-5.1-2.246zm3.096 7.649c-3.339 1.7-6.678 3.46-10.138 4.917 2.671 1.335 5.4 2.61 8.135 3.946 1.76-.85 8.56-3.825 17.484-8.014-2.975-1.4-5.889-2.853-8.8-4.188-2.249 1.092-4.495 2.246-6.681 3.339z"></path><path class="c" d="M103.136 105.53c-22.4 9.956-44.8 20.034-67.749 29.261-4.25 1.336-8.075-1.457-8.682-6.071C23.974 108.991 20.7 89.5 16.567 70.2c-.91-4.553 1.639-9.531 5.767-11.11C45.16 51.32 68.29 43.61 91.966 36.75c4.31-1.457 8.377 1.336 9.045 6.071 2.793 17.18 5.524 34.36 8.378 51.54.667 4.674-2.125 9.712-6.253 11.169zM52.627 40.756a2.935 2.935 0 0 0 0 3.278 3.493 3.493 0 0 0 .668.668 1.659 1.659 0 0 0 .729.364 1.776 1.776 0 0 0 2-1.4c.489-1.878-1.818-4.914-3.397-2.91z"></path><path class="d" d="m24.4 79.365-.547-1.335c7.831-3.218 15.723-5.828 24.04-8.621a605.977 605.977 0 0 0 16.573-5.706l.486 1.336a688.534 688.534 0 0 1-16.634 5.706C40 73.538 32.169 76.148 24.4 79.365z"></path><path class="e" d="m32.868 79.328 5.143-1.656.428 1.329-5.143 1.656z"></path><path class="a" d="m40.296 77.237 7.59-2.567.467 1.38-7.59 2.567z"></path><path class="f" d="m50.928 75.116-.425-1.4c4.31-1.275 8.62-2.793 12.87-4.432l.546 1.336a141.844 141.844 0 0 1-12.991 4.496zM41.7 82.158l-.486-1.336A1014.761 1014.761 0 0 1 87.6 65.281l.425 1.336C72.479 71.413 56.938 76.694 41.7 82.158z"></path><path class="e" d="m34.172 93.025-.364-1.4a18.322 18.322 0 0 0 3.946-1.517l.607 1.274a19.369 19.369 0 0 1-4.189 1.643z"></path><path class="a" d="m40.252 89.154 8.23-2.95.491 1.372-8.23 2.95z"></path><path class="e" d="m50.928 87.075-.425-1.4c4.188-1.214 8.438-2.61 12.566-4.007l.486 1.336c-4.189 1.461-8.378 2.857-12.627 4.071z"></path><path class="f" d="m44.128 93.692-.485-1.335A947.695 947.695 0 0 1 87.9 77.544l.425 1.336a920.205 920.205 0 0 0-44.197 14.812zm.12 2.649 18.524-6.791.48 1.31-18.524 6.792z"></path><path class="d" d="M28.298 108.225 54.42 97.691l.545 1.35-26.123 10.535z"></path><path class="e" d="m36.185 110.658 3.955-1.553.532 1.356-3.955 1.553z"></path><path class="a" d="m43.339 109.6-.425-1.4a82.813 82.813 0 0 0 9.167-3.338l.546 1.335a70.667 70.667 0 0 1-9.288 3.403z"></path><path class="f" d="m44.189 114.272-.546-1.335a1378.181 1378.181 0 0 1 40.734-15.845l.486 1.336a1310.225 1310.225 0 0 0-40.674 15.844zm.85 4.007-.546-1.336c3.1-1.335 6.313-2.671 9.531-3.824l.485 1.335q-4.825 1.821-9.47 3.825z"></path><path d="m122.5 105.9 8.621-76.431a12.969 12.969 0 0 1 12.87-12.02l44.62-4.128c9.652 2.975 12.08 10.867 11.23 18.516l-9.348 82.986a12.939 12.939 0 0 1-13.356 11.474l-39.46-1.639c-7.223-.308-15.477-10.507-15.177-18.758z" style="fill:#008c6e"></path><path d="m122.5 105.9 5.768-81.348a12.968 12.968 0 0 1 12.87-12.02h43.042a12.893 12.893 0 0 1 12.809 14.387L187.64 109.9a12.938 12.938 0 0 1-13.355 11.474l-39.46-1.639A12.959 12.959 0 0 1 122.5 105.9z" style="fill:#14d29b"></path><path class="c" d="M149.152 107.837a3.678 3.678 0 0 0 0 2.55c2.064 5.221 11.231 2.975 9.167-3.521a4.021 4.021 0 0 0-2.307-2.732c-2.732-1.034-5.949 1.093-6.86 3.703zM130.393 87.8l4.432-60.222c.364-4.978 4.857-8.863 10.26-8.863l34.421.121c6.192 0 10.988 4.978 10.32 10.685l-7.285 61.436c-.607 4.978-5.282 8.681-10.685 8.438l-31.567-1.336c-5.768-.239-10.26-4.852-9.896-10.259z"></path><path d="m131.911 88.775 4.432-60.221c.364-4.978 4.856-8.864 10.259-8.864l34.421.122a10.747 10.747 0 0 1 5.1 1.275 10.743 10.743 0 0 0-6.617-2.247l-34.421-.121c-5.4 0-9.9 3.824-10.26 8.863L130.393 87.8a9.439 9.439 0 0 0 5.221 8.984 9.413 9.413 0 0 1-3.703-8.009z"></path><path class="e" d="m142.231 31.589 41.038-.364-3.642 32.66-40.128-.668 2.732-31.628z"></path><path class="f" d="M148.788 58.786c7.224-2.975 15.3-2.064 22.826-3.764a28.307 28.307 0 0 0 9.531-4.068l1.274-11.354a36.327 36.327 0 0 1-10.988 6.435c-6.192 2.246-12.687 2.732-19.244 2.793a47.4 47.4 0 0 0-6.556.364 27.287 27.287 0 0 0-4.978 1.336l-1.093 12.629 2.853.06a18.251 18.251 0 0 1 6.375-4.431z"></path><path class="e" d="m140.471 85.558 33.025 1.092-.304 3.279-33.207-1.275.486-3.096z"></path><path class="b" d="m150.366 67.406 15.6-.061a4.316 4.316 0 0 1 4.31 4.432l-.061.729a4.226 4.226 0 0 1-4.431 4.067l-15.6-.668a4.328 4.328 0 0 1-3.946-5.464 4.434 4.434 0 0 1 4.128-3.035z"></path><path d="M98.886 96.91c8.864-7.831 14.509-9.895 22.219-12.384a45 45 0 0 1 3.4 8.741 1.556 1.556 0 0 0 2.914.3A132.475 132.475 0 0 1 137.8 77.484a2.728 2.728 0 0 0-.911-4.007c-6.617-3.521-13.72-6.86-19.791-10.26a1.6 1.6 0 0 0-2.246 2 66.4 66.4 0 0 1 2.671 9.045c-10.5 2.914-18.03 6.86-26.043 16.027a3.47 3.47 0 0 0 .121 4.735c.729.728 1.457 1.457 2.186 2.125 1.457 1.4 3.582 1.096 5.099-.239z" style="fill:#d70a32"></path></g></g></svg>