<svg xmlns="http://www.w3.org/2000/svg" viewBox="0 0 250 250" height="250" width="250"><g transform="matrix(0.625,0,0,0.625,0,0)"><g transform="matrix(2,0,0,2,0,0)"><defs><style>.a{fill:#ff8684}.b{fill:#6d458f}.e{fill:#ffd35c}.f{fill:#4fb3aa}.h{fill:#59679c}.j{fill:#4eb3aa}.k{fill:#f9d0d2}.n{fill:#1d1d1b}</style></defs><path class="a" d="M31.354 162.812a3.925 3.925 0 0 0-1.749-2.529.318.318 0 0 0-.367 0h-.007l-3.26 1.906-.465.272a.375.375 0 0 0-.133.507 5.794 5.794 0 0 0 3.182 2.589 2.253 2.253 0 0 0 2.33-.51 2.636 2.636 0 0 0 .469-2.235z"></path><path class="b" d="M186.4 134.886a.1.1 0 0 0 .05-.015h-.026a.215.215 0 0 1-.024.015z"></path><path class="b" d="m194.642 162.582-2.913-.216-6.932-.514-8.443-.626-7.249-.537-2.409-.179c-.164-.012-.334-.033-.5-.052q1.136-1.617 2.288-3.221 3.042-4.246 6.169-8.434c2.248-3 4.529-5.984 6.932-8.865.954-1.145 1.926-2.277 2.96-3.351.39-.406.79-.8 1.211-1.178.157-.139.317-.275.483-.4l.076-.058c.028-.02.059-.04.087-.062a.115.115 0 0 1-.078-.024h.036a.476.476 0 0 0 .066.006c.062-.059.06-.021.023 0 .119 0 .247-.009.361-.009h7.834a.371.371 0 0 0 0-.741h-7.894c-.135 0-.275-.011-.41 0a.984.984 0 0 0-.5.26 12.685 12.685 0 0 0-1.134.989c-.98.947-1.885 1.971-2.772 3-2.433 2.837-4.717 5.8-6.969 8.783q-3.29 4.355-6.468 8.79-1.109 1.539-2.205 3.087c-.353.5-.732.988-1.061 1.5l-.013.018a.338.338 0 0 0-.06.1.291.291 0 0 0-.024.184v6.384a.38.38 0 0 0 .37.37l2.812.264 6.718.632 8.158.766 7.027.66 2.32.218c.367.035.741.095 1.11.105h.048c.475.045.472-.7 0-.741l-2.811-.264-6.719-.631-8.157-.767-7.028-.66-2.319-.218c-.256-.024-.524-.07-.788-.092v-5.668l2.543.189 6.931.514 8.443.626 7.249.537 2.41.179c.378.028.763.08 1.143.084h.049c.475.039.473-.702-.001-.737z"></path><path class="b" d="m190.033 167.007-6.039-.541-7.335-.657-6.319-.565-2.094-.188c-.329-.029-.665-.083-1-.089h-.044c-.475-.043-.472.7 0 .741l2.528.226 6.039.541 7.335.657 6.319.566 2.094.187c.329.03.665.083 1 .09a.342.342 0 0 1 .044 0c.475.042.472-.7 0-.742zm4.42-2.047-2.6-.226-6.247-.543-7.524-.654-6.508-.566-2.164-.188c-.337-.03-.681-.083-1.02-.089h-.045c-.475-.041-.473.7 0 .741l2.6.226 6.248.544 7.524.654 6.507.566 2.164.188c.337.029.682.083 1.02.089a.357.357 0 0 1 .046 0c.474.041.471-.702-.001-.742z"></path><path d="m134.651 58.673 7.429-.038 7.24-.037 5.015-.026c.338 0 .676 0 1.014-.005a2.231 2.231 0 0 0 2.28-2.161c.017-1.088-.011-2.178-.017-3.266l-.036-6.989-.037-7.226c-.006-1.294-.007-2.587-.02-3.881a2.228 2.228 0 0 0-2.292-2.212l-2.483.069-6.036.168-7.543.209-7.023.2-4.4.122a6.653 6.653 0 0 0-.936.055 2.22 2.22 0 0 0-1.819 2.282l.022 4.289.038 7.366.034 6.653.01 1.912a2.515 2.515 0 0 0 .608 1.882c.859.884 2.247.673 3.369.668z" style="fill:#cff0fa"></path><path d="M127.262 77.629a6.133 6.133 0 0 0-.751-3 6.335 6.335 0 0 0-6 5.43 6.422 6.422 0 0 0 .877 4.138c.066-.006.132-.01.2-.017a6.618 6.618 0 0 0 5.674-6.551z" style="fill:#fe744f"></path><path class="e" d="M120.511 80.059a6.335 6.335 0 0 1 6-5.43 5.92 5.92 0 0 0-.284-.473c-3.237-4.838-11.17-3.225-11.952 2.6a6.735 6.735 0 0 0 6.536 7.471c.193 0 .385-.011.577-.027a6.422 6.422 0 0 1-.877-4.141z"></path><path class="e" d="M132.463 77.462a6.464 6.464 0 0 0-5.952-2.833 6.133 6.133 0 0 1 .751 3 6.618 6.618 0 0 1-5.676 6.551c-.066.007-.132.011-.2.017a6.492 6.492 0 0 0 6.435 3.288 6.615 6.615 0 0 0 5.675-6.55 6.117 6.117 0 0 0-1.033-3.473z"></path><path class="f" d="m147.024 42.093-7.317 7.331-4.793-3.644-5.55 7.288H152.7l-5.676-10.975z"></path><path d="M136.007 37.765a1.932 1.932 0 1 0 1.932 1.932 1.934 1.934 0 0 0-1.932-1.932z" style="fill:#f08385"></path><path class="h" d="M109.206 38.306c.59 1.337-.476 3.046.278 4.3.891 1.481 3.5 1 4.4 2.473.8 1.317-.346 3.317.69 4.46a5.238 5.238 0 0 0 .829.631 3.444 3.444 0 0 1 1.064 1.3 8.468 8.468 0 0 0 2.718-6.351 8.007 8.007 0 0 0-.071-.9 8.939 8.939 0 0 0-7.855-7.712 8.014 8.014 0 0 0-3.688.575 2.254 2.254 0 0 1 1.635 1.224z"></path><path class="f" d="M116.471 51.474a3.444 3.444 0 0 0-1.064-1.3 5.238 5.238 0 0 1-.829-.631c-1.036-1.143.115-3.143-.69-4.46-.9-1.475-3.513-.992-4.4-2.473-.754-1.253.312-2.962-.278-4.3a2.254 2.254 0 0 0-1.631-1.216 8.92 8.92 0 0 0-5.5 6.884c0 .021 0 .041-.006.062a3.084 3.084 0 0 0 2.668.574 3.287 3.287 0 0 1 1.274-.231c.817.127 1.19 1.052 1.586 1.778a.966.966 0 0 0 .293.363 1.086 1.086 0 0 0 .655.1c1.174-.064 2.635.2 2.986 1.316a3.234 3.234 0 0 1 0 1.378 14.624 14.624 0 0 0 .081 4.346c0 .023.009.046.013.07l.051-.005a8.458 8.458 0 0 0 4.791-2.255z"></path><path class="h" d="M111.525 49.312a3.234 3.234 0 0 0 0-1.378c-.351-1.121-1.812-1.38-2.986-1.316a1.086 1.086 0 0 1-.655-.1.966.966 0 0 1-.293-.363c-.4-.726-.769-1.651-1.586-1.778a3.287 3.287 0 0 0-1.274.231 3.084 3.084 0 0 1-2.668-.574 8.656 8.656 0 0 0 9.553 9.692c0-.024-.01-.047-.013-.07a14.624 14.624 0 0 1-.078-4.344z"></path><path class="f" d="M141.079 166.2c-.869-1.913-1.674-3.857-2.49-5.793q-1.361-3.225-2.706-6.457l-.57-1.369a.388.388 0 0 0-.357-.272c-2.751-.087-5.5-.11-8.258-.128q-5.379-.036-10.757-.019-5.419.011-10.839.045-4.3.027-8.592.064c-1.326.011-2.661-.022-3.986.037h-.057a.383.383 0 0 0-.357.272l-.972 2.668q-5.148-.066-10.3-.1-4.508-.027-9.014-.03c-1.318 0-2.649-.05-3.966 0h-.053a.369.369 0 0 0-.32.183c-1.2 2.241-2.206 4.6-3.24 6.924q-1.712 3.841-3.371 7.706-.354.82-.7 1.643c-.186.433.453.811.64.374q.979-2.3 1.979-4.583c1.218-2.8 2.444-5.59 3.722-8.359.488-1.057.976-2.118 1.52-3.147q1.508-.006 3.017 0 4.234 0 8.469.022 5.944.031 11.888.106 6.771.087 13.543.247c4.43.108 8.861.245 13.288.442l1.268.058a180.372 180.372 0 0 1 3.447 11.485 88.223 88.223 0 0 1 1.135 4.78c.095.467.81.27.715-.2a140.531 140.531 0 0 0-4.247-15.249 95.02 95.02 0 0 0-.421-1.275.383.383 0 0 0-.357-.272c-4.393-.21-8.789-.356-13.185-.471q-6.783-.178-13.568-.267l-1.1-.013.806-2.211 3-.028q4.094-.038 8.188-.063 5.347-.034 10.695-.05 5.43-.013 10.862.009c2.889.015 5.779.036 8.668.111l.57.017q.756 1.817 1.515 3.631 1.482 3.543 2.986 7.079c.4.943.8 1.887 1.229 2.821.19.437.828.061.633-.368z"></path><path class="f" d="M83.6 164.143a15.219 15.219 0 0 0 4.253.445c2.98-.05 5.969-.195 8.947-.335a25.143 25.143 0 0 0 4.291-.495c1.373-.306 2.65-.905 4.008-1.26 3.1-.81 6.163.645 9.267.687a.371.371 0 0 0 0-.741c-2.635-.036-5.171-1.085-7.818-.925a13.725 13.725 0 0 0-3.73.955 17.1 17.1 0 0 1-3.965.893c-1.357.14-2.722.174-4.084.226l-4.281.164c-1.386.053-2.778.142-4.165.07a17.151 17.151 0 0 1-3.88-.79 11.319 11.319 0 0 0-2.115-.437 7.589 7.589 0 0 0-2.161.175 14.1 14.1 0 0 1-2.175.367 1.318 1.318 0 0 1-.838-.116.734.734 0 0 1-.161-.182c.344-.155.143-.76-.29-.686a.641.641 0 0 0-.386 1 1.358 1.358 0 0 0 1.117.712c1.4.119 2.729-.483 4.115-.549a13.338 13.338 0 0 1 4.051.822zm31.477 2.881c-5.068-.238-10.139-.552-15.211-.668a71.207 71.207 0 0 0-7.563.174c-2.489.208-4.957.6-7.425.971a70.178 70.178 0 0 1-8.368.9c-.476.014-.478.756 0 .741 4.992-.149 9.878-1.276 14.835-1.778a102.788 102.788 0 0 1 15.177 0l8.555.4c.477.024.476-.717 0-.74zm10.787-7.624a10.164 10.164 0 0 1 4.645-.763c.476.034.474-.707 0-.741a10.656 10.656 0 0 0-4.842.789.383.383 0 0 0-.259.456.372.372 0 0 0 .456.259zm9.167 2.286-9.07.669c-.473.035-.477.777 0 .742l9.07-.67c.469-.035.477-.776 0-.741zm-3.27 5.169h-3.28a.371.371 0 0 0 0 .741h3.28a.371.371 0 0 0 0-.741z"></path><path d="m77.912 88.691-.942-2.423-.448-1.15-.318.2-.318.2-1.478.924a.374.374 0 0 1-.544-.222c-.013-.042-.023-.084-.034-.126l-.015-.057c-.033-.118-.064-.237-.095-.356l-.043-.159c-.09.12-.18.241-.273.359a19.714 19.714 0 0 1-3.185 3.213.351.351 0 0 0 .036.1l.735 1.28c.27.468.508.987.821 1.427.192.271.672.373.962.5l1.961.839 1.347.575a.379.379 0 0 0 .544-.221l1.547-3.776c.149-.37-.128-.788-.26-1.127zm-5.379-12.05c.008-.068.017-.136.027-.2l.033-.194-3.851-6.881a3.778 3.778 0 0 0 .486-1.251 12.719 12.719 0 0 0 .27-1.442 10.023 10.023 0 0 1-.707-.295 34.133 34.133 0 0 1-2.431-1.247l-.193-.11-.313.49-1.192 1.859-.211.33-.211.33.2.26.574.755a.927.927 0 0 0 .461.334c.329.119.687.244 1.054.339l1.171 9.034.12-.033.121-.032a33.968 33.968 0 0 1 4.518-.867 10.292 10.292 0 0 1 .074-1.179z" style="fill:#6e458f"></path><path class="j" d="M83.368 84.441a.327.327 0 0 0-.26-.254l-.3.045a.4.4 0 0 0-.159.406q.637 4.738 1.222 9.484c.057.467.8.473.741 0q-.592-4.845-1.244-9.681zm-6.674-21.663a.371.371 0 0 0 .741 0q-.258-11.811-.148-23.626.03-3.323.091-6.645a.371.371 0 0 0-.741 0q-.213 11.813-.059 23.627.044 3.322.116 6.644z"></path><path class="j" d="m95.857 55.1-.066-.046-.487-.34-6.092-4.254-.394-.274-.476-.333-.081-.056a.306.306 0 0 0-.417.034.322.322 0 0 0-.128.384c.071.226.156.448.246.667a56.28 56.28 0 0 0-4.8 6.615q-2.439 3.768-4.651 7.678-1.183 2.092-2.3 4.223a16.307 16.307 0 0 0-5.669-6.511.386.386 0 0 0-.081-.041 2.335 2.335 0 0 0-.925-1.141 4.277 4.277 0 0 0-2.068-.645v.022a5.65 5.65 0 0 1-.045 2.184 1.844 1.844 0 0 1-.791 1.033 3.357 3.357 0 0 1-.407.229 7.02 7.02 0 0 1-.654.262 13.167 13.167 0 0 1-3.96.591 2.974 2.974 0 0 1-1.475-.144c-.477-.29-.623-1.018-.728-1.518-.007-.033-.011-.067-.018-.1a5.086 5.086 0 0 0-2.125 2.913.922.922 0 0 0 .109.72 11.476 11.476 0 0 0-2.031 2.32 17.024 17.024 0 0 0-2.019 4.666 23.322 23.322 0 0 0-.61 10.072c.405 2.559 1.2 5.681 3.487 7.18v2.383a.371.371 0 1 0 .741 0V91.9h.006a9.9 9.9 0 0 0 4.574.559 13.615 13.615 0 0 0 5.144-1.14 18.169 18.169 0 0 0 3.544-2.231 19.714 19.714 0 0 0 3.19-3.209c.093-.118.183-.239.273-.359l.043.159c.031.119.062.238.095.356l.015.057c.011.042.021.084.034.126a.374.374 0 0 0 .544.222l1.478-.924.318-.2.318-.2.69-.431a.382.382 0 0 0 .133-.507l-3.517-7.3-.5-1.045a.3.3 0 0 0-.37-.177.312.312 0 0 0-.307.265c-.023.107-.037.214-.055.321-.011.065-.024.129-.033.194l-.027.2a10.292 10.292 0 0 0-.071 1.179 33.968 33.968 0 0 0-4.518.867l-.121.032-.12.033a21.2 21.2 0 0 0-5.515 2.353c-.112.069-.22.144-.33.216a52.481 52.481 0 0 0-2.757-8.93c-.178-.435-.9-.245-.714.2a52.53 52.53 0 0 1 2.807 9.19 16.215 16.215 0 0 0-1.6 1.313c-.349.327.176.85.524.524a14.661 14.661 0 0 1 1.239-1.037q.132.683.246 1.368c.077.469.791.27.714-.2-.09-.549-.192-1.1-.3-1.642a22.092 22.092 0 0 1 8.1-3.161 35.631 35.631 0 0 1 2.366-.383c.039.786.137 1.571.247 2.335.178 1.239.425 2.469.716 3.687a18.985 18.985 0 0 1-5.856 5.41 11.549 11.549 0 0 1-4.722 1.624 14.039 14.039 0 0 1-4.583-.052 4.984 4.984 0 0 1-3.235-2.352 12.829 12.829 0 0 1-1.433-4.11 22.4 22.4 0 0 1 .126-9.48 18.659 18.659 0 0 1 1.893-5.089A10.693 10.693 0 0 1 57.9 67.78c1.235.861 3.879 1.246 5.028 1.378a.884.884 0 0 0 .845-.4l.464-.727.211-.33.211-.33 1.192-1.864.313-.49.193.11c.423.237 1.47.814 2.431 1.247.119.054.237.1.352.154s.24.1.355.141c.549.207.992.309 1.147.18.305-.251.415-1.595.164-2.869a15.634 15.634 0 0 1 5.025 6.358c.154.356.606.172.667-.144a.325.325 0 0 0 .227-.18 139.474 139.474 0 0 1 9.1-15.175 39.871 39.871 0 0 1 2.475-3.221 19.191 19.191 0 0 0 1.909 2.871 43.356 43.356 0 0 0 2.954 3.425c-.339 1.01-.653 2.029-1.027 3.027a45.587 45.587 0 0 1-1.47 3.454c-1.068 2.259-2.291 4.44-3.565 6.588-.715 1.206-1.447 2.4-2.18 3.6-.249.408.391.781.64.374a84.926 84.926 0 0 0 7.087-13.287c.406-1.04.743-2.1 1.094-3.159l.077.078a.374.374 0 0 0 .582-.075l1.584-2.9a.38.38 0 0 0-.128-.514z"></path><path class="a" d="M75.809 76.008c.192.021.383.036.575.04a7.887 7.887 0 0 0 1.7-.153 12.045 12.045 0 0 0 1.648-.457A4.987 4.987 0 0 1 81.214 75a1.1 1.1 0 0 1 1.079.72 1.572 1.572 0 0 1-.192 1.336 4.165 4.165 0 0 1-.656.84l.311-.064a1.233 1.233 0 0 1 .891.048.982.982 0 0 1 .446.641 1.683 1.683 0 0 1-.837 1.683.9.9 0 0 1 .714.417c.421.725-.656 1.37-1.155 1.7a7.034 7.034 0 0 1-4.123 1.143l.4 1.488 4.726-.718.3-.045 1.413-.215-.285-13.824c-2.765 1.316-8.437 2.154-8.437 2.154zm94.691 65.806-9.127-37.756a.359.359 0 0 1-.115.05.315.315 0 0 1-.087.011h-.038q-1.011-.024-2.024-.044c-3.579-.07-7.159-.109-10.739-.14q-6.837-.06-13.676-.079-7.827-.027-15.654-.028-8.337 0-16.675.011-8.369.013-16.737.04-7.921.024-15.843.057-6.995.03-13.989.064l-11.179.059-7.417.041-2.67.017h-.013a.393.393 0 0 1-.112-.017.326.326 0 0 1-.112-.055l-12.129 38.39-.006 4.575h.123c.939.006 63.09.39 106.643.39 21.966 0 39.2-.1 41.464-.391l.094-.012.012-.094c.025-.154.506-3.829.006-5.089z"></path><path class="a" d="M75.237 75.077a28.293 28.293 0 0 1-.073-2.984c0-.119.007-.239.012-.358 0-.049 0-.1.007-.146.17-.031.507-.128.567-.141q.744-.162 1.484-.334 2.936-.677 5.838-1.48a.371.371 0 0 0-.2-.715q-3.167.876-6.372 1.6c-.511.116-1.04.2-1.544.34s-.511.535-.528.992a28.177 28.177 0 0 0 .065 3.223c.039.476.78.48.744.003zM92.59 36.166c-.342-.332-.866.191-.524.524l2.975 2.893c.342.333.867-.191.524-.524zm6.443-2.902a.371.371 0 0 0-.64.374 17.964 17.964 0 0 0 1.767 2.34.373.373 0 0 0 .524 0 .379.379 0 0 0 0-.524 16.329 16.329 0 0 1-1.651-2.19zm10.047-2.052a.375.375 0 0 0-.456.258l-.4 2.457a.38.38 0 0 0 .259.456.375.375 0 0 0 .456-.259l.4-2.457a.379.379 0 0 0-.259-.455z"></path><path class="k" d="M114.29 129.46a19.081 19.081 0 0 0-.777-2.249c-.153-.351-.377-.93-.814-.974-.567-.057-1.166-.009-1.735-.014q-4.8-.038-9.595-.063-6.109-.033-12.219-.034c-2.728 0-5.467-.036-8.193.087-.137.007-.273.014-.41.024a.368.368 0 0 0-.307.2.377.377 0 0 0-.063.17l-.51 4.037-.818 6.469-.186 1.477c-.026.2.19.369.37.371q1.618.019 3.237.035 3.971.04 7.94.071 4.979.037 9.956.055c3.12.01 6.241.013 9.362-.009 2.045-.015 4.1-.013 6.14-.126.136-.007.273-.016.41-.026a.377.377 0 0 0 .357-.469c-.609-3.029-1.274-6.066-2.145-9.032z"></path><path class="k" d="m152.892 119.286 1.7.024a.371.371 0 0 0 0-.741q-4.164-.063-8.33-.093-5.7-.049-11.4-.08-3.862-.024-7.724-.039c.062-.828.142-1.654.215-2.476.042-.475-.7-.472-.741 0-.073.82-.153 1.646-.215 2.472l-5.2-.026q-7.485-.033-14.971-.059-7.647-.025-15.3-.047-7.421-.021-14.841-.038l-6.458-.014q.342-1.6.693-3.2l.247-1.12 2.976.007q7.026.015 14.053.035l14.829.045q7.3.025 14.6.056 6.81.029 13.621.066 5.844.033 11.689.078 4.422.036 8.843.09.824.01 1.646.024a.371.371 0 0 0 0-.742q-4.032-.063-8.064-.093-5.52-.05-11.041-.08-6.615-.041-13.23-.069-7.247-.033-14.493-.058-7.4-.027-14.808-.048-7.184-.021-14.367-.038l-12.929-.028-5.336-.01.071-.209q.225-.653.453-1.3c.158-.452-.558-.645-.715-.2-.2.568-.392 1.138-.589 1.707l-4.6-.009-7.564-.012c-1.171 0-2.347-.032-3.519 0h-.152a.371.371 0 0 0 0 .741h2.421l6.637.011q3.262 0 6.524.012c-.136.4-.275.793-.41 1.19q-.534 1.563-1.058 3.131l-4.4-.008-7.813-.012c-1.21 0-2.425-.033-3.635 0h-.157a.371.371 0 0 0 0 .741h2.5l6.856.011 6.4.011q-.513 1.55-1.009 3.106l-.166.529-4.682-.023-5.389-.022-3.788-.014c-.593 0-1.187-.021-1.779-.006h-.073a.371.371 0 0 0 0 .741h1.219l3.337.012 5.044.02q2.943.012 5.884.028c-.2.66-.4 1.323-.578 1.99a.371.371 0 0 0 .715.2c.2-.732.411-1.458.633-2.183q3.352.016 6.707.037 2.963.018 5.925.04c-.054.275-.11.549-.163.824a71.902 71.902 0 0 0-.57 3.255c-.068.467.646.668.714.2.208-1.43.479-2.852.765-4.271l.788.006q3.672.027 7.342.061 3.426.033 6.85.074 2.928.038 5.854.087c1.489.026 2.978.056 4.467.1q.411.012.822.027c.477.017.476-.724 0-.741-1.352-.048-2.7-.077-4.057-.1q-2.775-.056-5.551-.09-3.327-.045-6.655-.077-3.627-.036-7.255-.064l-2.456-.018.275-1.343q.243-1.176.494-2.352l3.222.006q7.259.017 14.517.036 7.659.021 15.318.045 3.638.012 7.273.027c-.142 1.575-.3 3.165-.3 4.746a.371.371 0 0 0 .741 0c0-1.58.154-3.169.3-4.744l7.072.026q4.364.018 8.729.042c-.037.615-.06 1.23-.059 1.843a.371.371 0 0 0 .741 0c0-.612.022-1.226.059-1.84l4.6.022q6.038.033 12.074.078 4.568.023 9.135.077zm-84.94 3.314-4.275-.031q-3.612-.022-7.226-.042h-1.049c.36-1.143.738-2.281 1.114-3.417l.074-.221 3.176.006q4.47.007 8.94.018-.388 1.839-.754 3.687zm.913-4.432-6.138-.014-5.889-.01q.723-2.165 1.466-4.322h2.723l8.78.019q-.48 2.159-.942 4.327z"></path><path class="k" d="M119.078 122.652c-1.683-.006-3.387-.039-5.065.107-.472.041-.476.783 0 .741 1.678-.146 3.382-.112 5.065-.107a.371.371 0 0 0 0-.741zm11.863 0a174.461 174.461 0 0 0-6.43.021c-.641.016-1.283.035-1.922.086-.472.038-.476.78 0 .741 2.508-.2 5.053-.134 7.567-.114l.785.007a.371.371 0 0 0 0-.741zm25.291-.015a559.68 559.68 0 0 0-5.794-.082c-3.7-.037-7.4-.053-11.093.012-1.675.029-3.353.066-5.024.192-.473.036-.477.777 0 .741 3.3-.249 6.624-.229 9.929-.233s6.623.026 9.934.076q1.024.015 2.048.035a.371.371 0 0 0 0-.741z"></path><path d="m27.7 158.134-2.42-2.633-5.449-5.93-5.748-6.256-3.383-3.686a3.424 3.424 0 0 0-1.275-.664L7.2 138.03l.16.1-.314.235-.34.256-.435.326-.314.235-.279.209s-.055-.112-.134-.285l.529 1.665.509 1.6a1.079 1.079 0 0 0 .2.41c.934 1.061 1.912 2.085 2.867 3.127l5.507 6.007 5.48 5.979c.948 1.033 1.86 2.122 2.854 3.112l.041.045a.346.346 0 0 0 .155.1l.031.009h.016a.325.325 0 0 0 .247-.055l3.643-2.4a.377.377 0 0 0 .077-.571z" style="fill:#ffd35e"></path><path d="M61.233 44.784h-.028c-.112.016-.237.034-.368.055s-.256.041-.4.067c-2.88.524-8.573 2.386-6.469 10.306 0 0-2.27-.631-2.523.8s.715 3.448 4.037 2.354a11.283 11.283 0 0 0 2.341 1.7c.118.062.238.122.36.179s.257.116.388.167c.165.064.331.121.5.169a18.579 18.579 0 0 0 .329 3.039c.007.033.011.067.018.1.1.5.251 1.228.728 1.518a2.974 2.974 0 0 0 1.475.144 13.167 13.167 0 0 0 3.96-.591 7.02 7.02 0 0 0 .654-.262 3.357 3.357 0 0 0 .407-.229 1.844 1.844 0 0 0 .791-1.033 5.65 5.65 0 0 0 .045-2.184v-.022a22.07 22.07 0 0 0-.564-2.905 3.627 3.627 0 0 0 1.486-2.187c.372-2.597-4.717-11.452-7.167-11.185zm21.86 33.736a.982.982 0 0 0-.446-.641 1.233 1.233 0 0 0-.891-.048l-.311.064a4.165 4.165 0 0 0 .656-.84 1.572 1.572 0 0 0 .192-1.336A1.1 1.1 0 0 0 81.214 75a4.987 4.987 0 0 0-1.482.439 12.045 12.045 0 0 1-1.648.457 7.887 7.887 0 0 1-1.7.153 5.29 5.29 0 0 1-.575-.04c-.094-.01-.188-.019-.282-.035a.905.905 0 0 1-.6-.255c-.273-.386-.916-.016-.64.375a1.39 1.39 0 0 0 .565.454 2.969 2.969 0 0 0 1.068.237c.3.018.6.011.863 0a10.475 10.475 0 0 0 3.042-.6 5.9 5.9 0 0 1 1.346-.449c.491-.037.533.453.367.807a4.009 4.009 0 0 1-2 1.763c-.4.18-.1.758.286.677l1.442-.3c.249-.052.5-.114.749-.155.233-.039.382 0 .37.271-.017.387-.384.66-.673.86a9.334 9.334 0 0 1-1.214.7c-.407.2-.1.738.285.677a9.557 9.557 0 0 1 1-.106 1.3 1.3 0 0 1 .489.012.133.133 0 0 1 .046.032 1.8 1.8 0 0 1-.163.147 6.193 6.193 0 0 1-1.439.969 6.326 6.326 0 0 1-3.217.615c-.054 0-.108 0-.161-.01a.349.349 0 0 0-.136.013c-.332.1-.285.689.136.728.12.011.24.013.36.018a7.034 7.034 0 0 0 4.123-1.143c.5-.329 1.576-.974 1.155-1.7a.9.9 0 0 0-.714-.417 1.683 1.683 0 0 0 .831-1.674zm14.79-28.92a7.9 7.9 0 0 0-.392-1.4 3.1 3.1 0 0 0-1.561-1.736 12.712 12.712 0 0 0-.032-2.631 1.232 1.232 0 0 0-.379-.862 1.052 1.052 0 0 0-1.095-.059 4.5 4.5 0 0 0-1.685 1.474 32.15 32.15 0 0 0-1.371 1.927.816.816 0 0 0-.394-.263.936.936 0 0 0-.885.3 4.836 4.836 0 0 0-1.018 1.475 5.541 5.541 0 0 0-.335.935 2.029 2.029 0 0 1-.291.815.429.429 0 0 0-.1.284l.476.333a.293.293 0 0 0 .151-.093 6.616 6.616 0 0 0 .705-1.818 4.094 4.094 0 0 1 1.058-1.5.079.079 0 0 1 .04-.017.3.3 0 0 1 .081.086 2.2 2.2 0 0 1 .234.422 3.761 3.761 0 0 1 .264.9 10.048 10.048 0 0 1 .09 1.954.371.371 0 0 0 .741 0 7.535 7.535 0 0 0-.4-3.106.528.528 0 0 0 .036-.044q.587-.9 1.221-1.764a6 6 0 0 1 1.25-1.371c.153-.11.568-.426.768-.3.168.109.139.644.151.8a13.141 13.141 0 0 1-.011 1.999 3.706 3.706 0 0 0-1.529 1.086 3.41 3.41 0 0 0-.849 1.985 1.067 1.067 0 0 0 1.583.9c.027-.011.053-.025.08-.037a1.623 1.623 0 0 0-.149.492 1.425 1.425 0 0 0 1.373 1.508 1.784 1.784 0 0 0 .7-.1 17.552 17.552 0 0 1-1.056 2.335.367.367 0 0 0-.046.2l.487.34a.331.331 0 0 0 .2-.168 18.784 18.784 0 0 0 1.31-3.011.328.328 0 0 0-.009-.223 2.492 2.492 0 0 0 .512-.637 1.957 1.957 0 0 0 .076-1.41zm-7.122-2.842c-.009-.002-.014-.003 0-.003zm6.4 3.887a1.725 1.725 0 0 1-.388.463 1.421 1.421 0 0 1-1.067.428.726.726 0 0 1-.644-.562c-.041-.394.348-.8.559-1.1l.879-1.238c.243-.342-.3-.764-.581-.449a6.835 6.835 0 0 1-1.4 1.221c-.212.138-.494.34-.762.276-.3-.072-.192-.4-.134-.621a3.013 3.013 0 0 1 1.772-2 2.32 2.32 0 0 1 1.476 1.593 9.418 9.418 0 0 1 .326 1.3 1 1 0 0 1-.034.686z" style="fill:#ffe497"></path><path class="n" d="M169.619 142.1c-1.612-.1-3.244-.051-4.858-.06q-5.562-.032-11.126-.035-7.99-.015-15.981-.016h-19.061q-10.419 0-20.837.013-10.386.007-20.771.02l-19.426.024-16.256.024-11.746.019c-1.838 0-3.679-.025-5.517.009h-.241a.371.371 0 0 0 0 .741l3.821-.006 10.319-.017 15.394-.023 18.7-.024 20.7-.022q10.428-.009 20.855-.015 9.867-.006 19.735 0 8.393 0 16.786.011 6.252.009 12.5.031c2.163.009 4.329 0 6.492.053.172 0 .344.007.516.017.483.03.476-.711.002-.744zM28.043 158.9l-3.42 2.068-.491.3a.371.371 0 0 0 .375.64q1.708-1.035 3.419-2.068l.491-.3a.371.371 0 0 0-.374-.64zM10.9 139c-.105-.466-.819-.269-.715.2l.273 1.212H8.731a.374.374 0 0 0-.371.371l.13 1.562L6.769 142c-.466-.09-.666.624-.2.715l2.228.435a.375.375 0 0 0 .469-.358l-.137-1.648h1.785a.375.375 0 0 0 .357-.469zm123.524-74.551a6.194 6.194 0 0 0 1.8-.941c.3-.209.6-.425.909-.619a1.537 1.537 0 0 1 .814-.32c.276.011.293.261.344.482a1.279 1.279 0 0 0 .393.744 1.441 1.441 0 0 0 1.64-.051 5.862 5.862 0 0 1 .734-.446 1.387 1.387 0 0 1 .9-.012 17.241 17.241 0 0 0 1.738.561 18.747 18.747 0 0 0 2.368-.176c.878.027 1.753.139 2.631.18a42.883 42.883 0 0 0 5.329-.089c.472-.037.476-.778 0-.741q-2.085.163-4.178.127-1.03-.021-2.059-.09c-.669-.045-1.343-.142-2.015-.13a13.65 13.65 0 0 1-1.887.2 8.238 8.238 0 0 1-1.511-.494 2.291 2.291 0 0 0-1.515-.053c-.471.173-.868.647-1.375.7-.568.063-.455-.653-.675-1a1.121 1.121 0 0 0-1.295-.395 5.287 5.287 0 0 0-1.529.884 6.475 6.475 0 0 1-1.6.913 2.019 2.019 0 0 1-1.64-.054 1.756 1.756 0 0 1-.592-.558 6.017 6.017 0 0 0 1.413-1.351c.306-.41.642-1.026.322-1.525-.36-.562-1.123-.346-1.588-.057a2.42 2.42 0 0 0-1.077 2.645 6.554 6.554 0 0 1-.324.164 5.4 5.4 0 0 1-2.736.483.322.322 0 0 0 .008-.071.371.371 0 0 0-.37-.37.76.76 0 0 0-.713.612.377.377 0 0 0 .259.456 6.211 6.211 0 0 0 4.174-.6 2.553 2.553 0 0 0 2.903.992zm-2.168-3.3a1.715 1.715 0 0 1 .523-.428c.141-.075.508-.267.481.007a1.525 1.525 0 0 1-.391.691 5.227 5.227 0 0 1-.576.614 5.05 5.05 0 0 1-.412.334 1.65 1.65 0 0 1 .375-1.222zm23.464 6.586-4.872.177c-.792.029-1.586.041-2.377.094a11.991 11.991 0 0 0-2.2.4 10.076 10.076 0 0 1-2.3.288 13.017 13.017 0 0 0-2.316.2 4.559 4.559 0 0 1-2.179.093c-.652-.171-1.27-.455-1.926-.613a4.415 4.415 0 0 0-2.207.071 4.178 4.178 0 0 1-2.292.262c-.457-.141-.652.574-.2.714 1.4.432 2.67-.567 4.059-.414a10.444 10.444 0 0 1 1.98.581 4.387 4.387 0 0 0 2.035.208c.369-.056.731-.153 1.1-.221a8.587 8.587 0 0 1 1.241-.117 19.579 19.579 0 0 0 2.321-.141c.741-.116 1.45-.38 2.192-.5a19.614 19.614 0 0 1 2.338-.14l5.6-.2c.483-.018.483-.759.003-.742zm-54.79-4.188a2.27 2.27 0 0 0 2.178-.011 4.652 4.652 0 0 0 .96-.651 7.034 7.034 0 0 1 .951-.822c.31-.172.585.064.835.243a2.83 2.83 0 0 0 .972.512 4.873 4.873 0 0 0 2.15-.166 3.239 3.239 0 0 1 2.162.139 5.3 5.3 0 0 0 2.137.732 4.045 4.045 0 0 0 2.126-.77c.367-.23.722-.491 1.11-.684.474-.236.811-.059 1.261.138a4.236 4.236 0 0 0 2.679.241c.464-.107.268-.822-.2-.715a3.54 3.54 0 0 1-2.3-.253 2.385 2.385 0 0 0-.975-.29 2.128 2.128 0 0 0-1.059.36 12.7 12.7 0 0 1-1.857 1.077 2.408 2.408 0 0 1-2.024-.219 4.806 4.806 0 0 0-1.915-.636 10.434 10.434 0 0 0-2.111.322 2.66 2.66 0 0 1-.9.028 2.283 2.283 0 0 1-.921-.483 1.341 1.341 0 0 0-1.774-.049 5.707 5.707 0 0 1-2.079 1.442 1.269 1.269 0 0 1-1.093-.168.813.813 0 0 1-.3-.9c.152-.453-.563-.647-.714-.2a1.576 1.576 0 0 0 .701 1.783zm21.511 3.602c-1.293-.339-2.522.179-3.8.337a7.007 7.007 0 0 1-2.067-.129 20.618 20.618 0 0 0-2.118-.261c-1.429-.093-2.867-.073-4.3-.062q-2.178.016-4.357.066c-.8.017-1.6.044-2.395.127s-1.56.274-2.348.31c-.475.022-.477.764 0 .741.691-.032 1.365-.192 2.05-.277s1.394-.123 2.093-.144c1.429-.045 2.861-.06 4.291-.076s2.869-.033 4.3.023a17.79 17.79 0 0 1 2.124.19 14.519 14.519 0 0 0 2.064.269c1.424.023 2.846-.77 4.261-.4a.371.371 0 0 0 .202-.714zM58.66 50.994l.006-.017zm-.104.393s.006-.014 0-.034a.182.182 0 0 1 0 .034zm.28-.704c.017-.011.026-.027.019-.022l-.013.015zm-5.073 5.422a3.115 3.115 0 0 1-.463-.021 3.151 3.151 0 0 1-.319-.062.391.391 0 0 0-.286.038.38.38 0 0 0-.17.221.372.372 0 0 0 .259.456 3.55 3.55 0 0 0 .979.109.383.383 0 0 0 .262-.109.369.369 0 0 0 0-.524.373.373 0 0 0-.262-.108z"></path><path class="n" d="M58.7 49.8a2.182 2.182 0 0 0-.845 2.192.373.373 0 0 0 .456.259.38.38 0 0 0 .259-.456c0-.021-.009-.042-.012-.064v-.094a1.645 1.645 0 0 1 0-.233v-.014a.086.086 0 0 1 0-.03c.006-.037.014-.074.022-.11a1.816 1.816 0 0 1 .068-.225l.011-.024c-.007.014-.013.022 0-.007v-.017.007c.015-.032.03-.064.047-.095a1.834 1.834 0 0 1 .123-.2l.009-.009.013-.015.011-.016a2.087 2.087 0 0 1 .163-.167l.039-.034.01-.009a.378.378 0 0 0 .13-.5.374.374 0 0 0-.504-.139zm6.653 3.628a3.03 3.03 0 0 1-1.353.914 5.21 5.21 0 0 1-1.97.153.853.853 0 0 0-.816.288 1.377 1.377 0 0 0-.235.8 1.872 1.872 0 0 0 .691 1.422 2.548 2.548 0 0 0 1.93.495.384.384 0 0 0 .371-.371.373.373 0 0 0-.371-.37 1.744 1.744 0 0 1-1.638-.5 1.118 1.118 0 0 1-.237-.667 1.017 1.017 0 0 1 .065-.327l.012-.04a.007.007 0 0 0 .009.008 1.011 1.011 0 0 1 .263.011 5.65 5.65 0 0 0 2.165-.2 3.754 3.754 0 0 0 1.639-1.092c.311-.358-.211-.884-.525-.524zm-1.644-5.506.089.037a.382.382 0 0 0 .111.012.94.94 0 0 1 .176 0A.991.991 0 0 1 64.2 48a.926.926 0 0 1 .146.085.386.386 0 0 0 .256.1.379.379 0 0 0 .262-.109.373.373 0 0 0 .109-.262.377.377 0 0 0-.109-.262 1.234 1.234 0 0 0-.775-.329 1.27 1.27 0 0 0-.3.019.37.37 0 0 0-.221.17.37.37 0 0 0 .132.507z"></path><circle class="n" cx="60.822" cy="52.043" r=".52"></circle><circle class="n" cx="65.126" cy="49.677" r=".52"></circle><path class="n" d="M64.419 59.463a10.107 10.107 0 0 1-2.829.8.372.372 0 0 0-.258.455.379.379 0 0 0 .455.259 10.53 10.53 0 0 0 3.006-.869.374.374 0 0 0 .133-.507.379.379 0 0 0-.507-.138zm-7.673-18.506c-2.039-.782-5.155-.964-6.6 1.023a2.8 2.8 0 0 0-.207 3.043c-1.322.839-2.8 1.932-3.183 3.495a2.588 2.588 0 0 0 .453 2.311 2.111 2.111 0 0 0 1 .657 6.438 6.438 0 0 0-1.095 5.091 5.74 5.74 0 0 0 1.352 2.961 8.142 8.142 0 0 0 2.892 1.914 6.589 6.589 0 0 0 3.495.568 7.85 7.85 0 0 0 3.313-1.311c.139-.094.273-.2.405-.3a6.97 6.97 0 0 1-.748-.346 11.283 11.283 0 0 1-2.341-1.7c-3.322 1.094-4.289-.925-4.037-2.354s2.523-.8 2.523-.8c-2.1-7.92 3.589-9.782 6.469-10.306.139-.026.27-.047.4-.067l.368-.055h.028a8.747 8.747 0 0 0-4.487-3.824z"></path><path class="n" d="M161.924 44.892c-.043-5.225-.1-10.454-.321-15.675q-.03-.72-.065-1.441a.378.378 0 0 0-.371-.37q-1.272-.021-2.545-.039-3.549-.054-7.1-.1-5.355-.072-10.712-.136-6.74-.079-13.48-.146-7.689-.077-15.378-.132-8.242-.06-16.484-.092-8.283-.032-16.566-.026-7.926.008-15.852.065-7.134.055-14.268.18c-3.955.075-7.91.17-11.863.324q-1.2.046-2.4.1a.376.376 0 0 0-.37.37v72.9c0 .975-.053 1.966 0 2.939v.134a.342.342 0 0 0 .094.246.3.3 0 0 0 .164.108.393.393 0 0 0 .112.017h.013l2.67-.017 7.409-.044q5.589-.032 11.179-.059 6.994-.034 13.989-.064 7.921-.033 15.843-.057 8.369-.025 16.737-.04 8.338-.013 16.675-.011 7.827 0 15.654.028 6.839.024 13.676.079c3.58.031 7.16.07 10.739.14q1.013.02 2.024.044h.038a.315.315 0 0 0 .087-.011.359.359 0 0 0 .115-.05.388.388 0 0 0 .169-.31q.048-2.882.088-5.764.1-7.285.18-14.573.1-9.538.142-19.077c.028-6.479.031-12.96-.022-19.44zm-1.019 51.66q-.033 2.418-.071 4.836l-.023 1.493c0 .144-.026.321-.031.489a751.102 751.102 0 0 0-9.492-.149q-6.525-.069-13.049-.093-7.631-.034-15.261-.04-8.257-.007-16.514 0-8.406.011-16.811.034-8.075.023-16.149.054-7.265.028-14.528.063l-11.952.062-8.415.048c-1.238.008-2.479-.01-3.717.021v-8.24l2.423.012q3.868.021 7.737.038 5.79.027 11.581.051 7.242.03 14.483.055 8.115.029 16.231.05 8.5.021 17 .034 8.373.012 16.747.01 7.76 0 15.519-.025 6.566-.02 13.131-.068c3.26-.026 6.52-.057 9.779-.12q.7-.013 1.4-.031l-.018 1.416zm.31-34.657q-.029 9.673-.128 19.346-.064 6.578-.154 13.154c-2.81.066-5.62.1-8.43.127q-6.231.061-12.461.08-7.493.03-14.985.034-8.3.008-16.6 0-8.519-.009-17.037-.029-8.256-.02-16.512-.047-7.479-.024-14.958-.054l-12.419-.053-8.743-.042c-1.3-.007-2.6-.042-3.9-.023V28.925c0-.246.034-.533.022-.8 3.559-.162 7.12-.264 10.681-.344q6.9-.156 13.809-.214 7.774-.076 15.547-.09 8.237-.019 16.472.006 8.265.023 16.529.078 7.891.051 15.783.124 7.011.066 14.021.146 5.733.065 11.466.14 4.018.054 8.039.112l2.48.037c.341 0 .721.051 1.073.033.23 4.819.3 9.646.347 14.469.072 6.427.077 12.851.058 19.278z"></path><path class="n" d="M99.877 97.545a1.812 1.812 0 0 0-2.611 2.168 1.875 1.875 0 0 0 1.758 1.389 1.928 1.928 0 0 0 1.9-1.905 1.873 1.873 0 0 0-1.047-1.652zm.223 2.1c-.011.033-.006.015 0 0zm.082-.33v.035l-.007.039a1.768 1.768 0 0 1-.065.237l-.006.017a3.287 3.287 0 0 1-.076.149c-.019.034-.046.072-.071.108l-.016.021-.029.034a1.77 1.77 0 0 1-.165.159l-.05.037c-.036.024-.073.047-.11.068s-.069.036-.105.053l-.062.023a1.369 1.369 0 0 1-.245.06l-.07.005h-.228l-.067-.014a1.342 1.342 0 0 1-.1-.026l-.064-.022-.015-.006-.063-.031a1.62 1.62 0 0 1-.169-.106l-.051-.044a1.707 1.707 0 0 1-.154-.164l-.024-.034c-.021-.032-.042-.064-.062-.1l-.047-.087-.022-.045-.014-.033-.028-.08c-.01-.031-.02-.063-.028-.1s-.016-.065-.022-.1l-.011-.058v-.01a1.948 1.948 0 0 1-.007-.2c0-.039 0-.078.007-.118l.009-.052a1.739 1.739 0 0 1 .06-.214l.014-.037a1.731 1.731 0 0 1 .114-.203c0-.008.027-.037.036-.051l.048-.054c.024-.025.048-.049.074-.072l.04-.035.055-.038c.05-.032.1-.058.156-.085l.03-.011c.026-.009.052-.018.079-.025s.053-.015.08-.021l.064-.011c.1-.007.2 0 .307 0l.052.006c.027.005.055.011.082.018a1.7 1.7 0 0 1 .188.056c.031.011.1.043.029.011.03.014.06.027.089.043a1.67 1.67 0 0 1 .181.109l.034.024.074.065a1.749 1.749 0 0 1 .131.141l.031.042q.031.047.06.1c.017.03.031.06.046.089l.006.011.007.021a1.775 1.775 0 0 1 .06.213l.007.044v.009c0 .042.005.084.006.126s-.001.075-.003.114zm-95.11 37.868c-.255.223.228 1.378.476 1.922.079.173.134.285.134.285l.279-.209.314-.235.435-.326.34-.256.314-.235-.16-.1c-.472-.286-1.854-1.089-2.132-.846z"></path></g></g></svg>