<svg xmlns="http://www.w3.org/2000/svg" viewBox="0 0 250 250" height="250" width="250"><g transform="matrix(0.625,0,0,0.625,0,0)"><g transform="matrix(2,0,0,2,0,0)"><defs><style>.a{fill:none}.b{fill:#d1a9ff}.c{fill:#1d1d1b}.e{fill:#ac47f5}.f{fill:#ffe497}.h{fill:#fee253}.i{fill:#ffceb6}</style></defs><path class="a" d="M122.009 145.02a20.181 20.181 0 0 1-.288-3.142q-.066-1.744-.031-3.492a64.493 64.493 0 0 1 .518-6.943 70.786 70.786 0 0 1 1.084-6.205 2.886 2.886 0 0 1-.741-.072 2.469 2.469 0 0 1-.88-.409c-.025.086-.046.172-.074.257a6.031 6.031 0 0 1-1.066 2.023 14.653 14.653 0 0 1-1.99 1.637 15.426 15.426 0 0 0-4.874 9.365.151.151 0 0 1-.013.029v.039a28.479 28.479 0 0 0-.336 3.191 41.11 41.11 0 0 0 .14 5.6 21.832 21.832 0 0 0 .981 5.369c1.178 3.348 4.306 6.061 8 4.857a11.253 11.253 0 0 0 5.157-3.947c.171-.21.334-.427.5-.641a14.5 14.5 0 0 1-.654-.34 10.581 10.581 0 0 1-5.433-7.176z"></path><path class="b" d="M86.62 66.83h.007c.105.01.21.006.315.011v-.088a2.438 2.438 0 0 1-.322.077z"></path><path class="b" d="M112.327 58.262a28.056 28.056 0 0 0-1.227-6.49 19.968 19.968 0 0 0-2.028-4.761 6.485 6.485 0 0 0-.486-.678 3.445 3.445 0 0 0-1.574-1.2 8.116 8.116 0 0 0-2.125-.191q-2.355-.078-4.709-.227-4.737-.3-9.45-.886-2.68-.334-5.347-.762a.372.372 0 0 0-.162.015 2.6 2.6 0 0 1 1.8.791l.013.016a6.381 6.381 0 0 1 1.133 2.753 54.511 54.511 0 0 1 1.153 7.161c.124 1.2.224 2.408.318 3.614.083 1.065.181 2.132.187 3.2.011 1.892-.3 4-1.7 5.4a2.937 2.937 0 0 1-1.183.735v.088c.164.007.327.02.49.017a8.426 8.426 0 0 0 2.579-.467 9.013 9.013 0 0 0 5.062-4.43 15.337 15.337 0 0 0 1.5-6.79 4.053 4.053 0 0 1 .636-2.708 1.283 1.283 0 0 1 1.11-.462 1.931 1.931 0 0 1 1.318.917 10.819 10.819 0 0 1 1.706 5.414 13.276 13.276 0 0 0 .093-3.047c-.095-1.062-.675-2.583.184-3.479s2.113-.2 2.806.525a6.837 6.837 0 0 1 1.043 1.578 15.158 15.158 0 0 1 .827 1.878c.023.065.04.131.063.2l-.109-2.011a2.514 2.514 0 0 1 .374-1.834c.5-.561 1.19-.254 1.654.174a10.913 10.913 0 0 1 1.13 1.263 11.448 11.448 0 0 1 2.317 6.614c.006.277 0 .554-.012.831-.036.778-.138 1.557-.242 2.325a39.138 39.138 0 0 1-.254 1.6c.1-.183.19-.369.272-.559a13.374 13.374 0 0 0 .84-6.127z"></path><path class="c" d="m83.153 54.9.016.035a.228.228 0 0 1-.106.306.25.25 0 0 1-.038.015.292.292 0 0 1-.136.047c-.492.039-.985.064-1.477.083q.031.789.117 1.577c.086.8.207 1.606.361 2.4.147-.27.293-.54.435-.809q.656-1.249 1.322-2.495c0-.006.008-.008.011-.013l.01-.012a.249.249 0 0 1 .287-.105.276.276 0 0 1 .194.13c1.132 1.728 2.252 3.464 3.409 5.175a.294.294 0 0 1-.251.438l-.776.034-4.018.18a8.718 8.718 0 0 0 1.4 3.011 3.517 3.517 0 0 0 2.162 1.387 2.494 2.494 0 0 0 2.206-1.4 9.026 9.026 0 0 0 .917-5.353c-.1-1.782-.254-3.565-.438-5.343a.318.318 0 0 1-.235.127c-1.176.01-2.35.141-3.525.046a.3.3 0 0 1-.288-.3.3.3 0 0 1 .037-.138c.983-1.7 1.966-3.388 2.823-5.153a.24.24 0 0 1 .289-.138.251.251 0 0 1 .13.04 41.08 41.08 0 0 0-.484-2.228 4.1 4.1 0 0 0-1.15-2.378 1.906 1.906 0 0 0-2.011-.224 4.51 4.51 0 0 0-.671.723 10.491 10.491 0 0 0-1.591 4.184c-.217 1.077-.355 2.165-.479 3.255a17.467 17.467 0 0 1 1.522 2.849.216.216 0 0 1 .026.047z"></path><path d="M81.529 56.958q-.085-.787-.117-1.577c-.194.008-.389.015-.583.02q.026.579.078 1.156a29.475 29.475 0 0 0 .555 3.607q.21-.405.428-.8c-.154-.8-.275-1.602-.361-2.406z" style="fill:#ffffff"></path><path class="e" d="m83.169 54.93-.016-.035a.216.216 0 0 0-.022-.049A17.467 17.467 0 0 0 81.609 52q-.24-.366-.5-.722c-.169-.232-.337-.466-.519-.691a.294.294 0 0 0-.415 0 .241.241 0 0 0-.041.054A38.914 38.914 0 0 0 77.816 55a.293.293 0 0 0 .114.4.3.3 0 0 0 .137.037c.921 0 1.842-.005 2.762-.031.194-.006.389-.012.583-.02.492-.019.985-.044 1.477-.083a.292.292 0 0 0 .136-.047.23.23 0 0 0 .159-.283.25.25 0 0 0-.015-.043zm-1.751-5.294c-.016-.043-.038-.083-.055-.126a33.519 33.519 0 0 0-1.97-3.718.292.292 0 0 0-.4-.1.3.3 0 0 0-.1.1 110.951 110.951 0 0 1-1.866 3.985.295.295 0 0 0 .251.437c1.314-.1 2.633-.023 3.939-.22a.24.24 0 0 0 .069-.026.216.216 0 0 0 .119-.109.241.241 0 0 0 .013-.223zm6.14 11.594c-1.157-1.711-2.277-3.447-3.409-5.175a.276.276 0 0 0-.194-.13.249.249 0 0 0-.287.105l-.01.012s-.008.007-.011.013q-.666 1.245-1.322 2.495c-.142.269-.288.539-.435.809s-.287.535-.428.8a14.725 14.725 0 0 0-.658 1.413.291.291 0 0 0 .206.358.264.264 0 0 0 .074.01l.825-.036.6-.027 4.018-.18.776-.034a.293.293 0 0 0 .288-.3.287.287 0 0 0-.033-.133zm.549-12.397a.247.247 0 0 0-.107-.168.252.252 0 0 0-.131-.04.239.239 0 0 0-.288.138c-.857 1.765-1.84 3.457-2.823 5.153a.3.3 0 0 0 .114.4.3.3 0 0 0 .137.037c1.175.095 2.349-.036 3.525-.046a.318.318 0 0 0 .235-.127.219.219 0 0 0 .055-.164c-.224-1.731-.372-3.47-.717-5.183z"></path><path class="c" d="M72.847 29.976a3.344 3.344 0 0 0-4.059-2.248 8.9 8.9 0 0 0 .489-4.5A4.8 4.8 0 0 0 67.07 20.2a6.948 6.948 0 0 0-3.642-.993 9.041 9.041 0 0 0-4.128 1.13 24.464 24.464 0 0 0-4.2 2.967 4.387 4.387 0 0 0-2.636-2.266 6.05 6.05 0 0 0-4.371.289 14.98 14.98 0 0 0-4.088 2.885q-1.615 1.488-3.081 3.13c-4.213 4.711-7.731 10.5-8.594 16.858a19.921 19.921 0 0 0 .11 6.064 4.369 4.369 0 0 1 .56-.073 4 4 0 0 1 .774.014 6.079 6.079 0 0 1 2.175.82c.017-.338.041-.674.08-1.01a19.8 19.8 0 0 1 4.991-10.727 26.363 26.363 0 0 1 9.527-7.028 21.575 21.575 0 0 1 4.645-1.293 24.991 24.991 0 0 1 5.028-.38 9.6 9.6 0 0 1 4.327.964 12.236 12.236 0 0 1 3.979 4.006c.4.595.758 1.214 1.1 1.842.121.22.242.44.357.663.234-.591.5-1.169.784-1.739a26.967 26.967 0 0 0 1.922-4.284 4.119 4.119 0 0 0 .158-2.063z"></path><path class="f" d="M43.816 64.552a12.839 12.839 0 0 1-6.316-6.118c-.057.122-.126.238-.193.355a65.277 65.277 0 0 0-.7 5.042c-.1.994-.187 1.989-.274 2.984a6.62 6.62 0 0 0 .225 2.966 5.965 5.965 0 0 0 1.8 2.361 19.929 19.929 0 0 0 2.462 1.9 13.677 13.677 0 0 0 5.794 2.149 21.89 21.89 0 0 0 6.7-.269 39.69 39.69 0 0 0 3.191-.747 9.536 9.536 0 0 0 2.762-1.022 5.108 5.108 0 0 0 2.182-3.312l.5-2.425.89-4.292a25.981 25.981 0 0 1-9.167 2.024 22.914 22.914 0 0 1-9.856-1.596z"></path><path class="c" d="M35.726 68.8a5.434 5.434 0 0 0 1.024 2.534 12.528 12.528 0 0 0 2.307 2.153 15.685 15.685 0 0 0 5.508 2.9c4.444 1.2 9.178.227 13.483-1.057a5.728 5.728 0 0 0 2.486-1.517 5.618 5.618 0 0 0 1.254-2.013 17.05 17.05 0 0 0 .5-2.173l1.2-5.8c-.189.087-.377.178-.567.26l-.087.034q-.444 2.147-.89 4.292l-.5 2.425a5.108 5.108 0 0 1-2.182 3.312 9.536 9.536 0 0 1-2.762 1.022 39.69 39.69 0 0 1-3.191.747 21.89 21.89 0 0 1-6.7.269 13.668 13.668 0 0 1-5.793-2.149 19.769 19.769 0 0 1-2.463-1.9 5.965 5.965 0 0 1-1.8-2.361 6.62 6.62 0 0 1-.225-2.966c.087-1 .174-1.99.274-2.984.171-1.69.4-3.371.7-5.042a6.091 6.091 0 0 1-.764 1.054 59.58 59.58 0 0 0-.372 2.634c-.117 1-.213 2-.3 2.995a21.468 21.468 0 0 0-.189 2.752c.006.133 0 .267.018.4.005.062.022.121.031.179z"></path><path class="f" d="m71.42 54.488-.026-.008a.287.287 0 0 1-.067-.025.268.268 0 0 1-.133-.354.258.258 0 0 1 .054-.11 71.52 71.52 0 0 0 1.37-2.4 18.473 18.473 0 0 0-.048-2.577H69.2a.294.294 0 0 1-.29-.3.291.291 0 0 1 .01-.072c.537-1.395 1.184-2.744 1.722-4.138a.295.295 0 0 1 .531-.07c.34.613.671 1.231 1.006 1.846-.009-.047-.015-.095-.025-.143a30.1 30.1 0 0 0-1.867-6.037 23.884 23.884 0 0 0-2.954-5.215 9.057 9.057 0 0 0-3.915-3.2 12.7 12.7 0 0 0-4.507-.518 22.885 22.885 0 0 0-9.492 2.24 26.343 26.343 0 0 0-8.85 7.325 18.429 18.429 0 0 0-4.062 10.781.294.294 0 0 1-.3.288.307.307 0 0 1-.139-.037 5.928 5.928 0 0 0-2.568-1.005 3.95 3.95 0 0 0-2.22.553c-2.814 1.632-2.819 5.42-1.121 7.873.826 1.193 2.286 2.254 3.8 1.809a4.646 4.646 0 0 0 1.905-1.277 4.855 4.855 0 0 0 1.32-2.08c.062-.223.426-.306.532-.069a13.282 13.282 0 0 0 2.907 4.194 12.273 12.273 0 0 0 4.717 2.748 24.407 24.407 0 0 0 9.415.99 24.837 24.837 0 0 0 8.81-2.341 21.97 21.97 0 0 0 3.943-2.43 15.329 15.329 0 0 0 3.335-3.406 9.847 9.847 0 0 0 1.292-2.779c-.225-.014-.45-.023-.674-.044a.222.222 0 0 1-.041-.012zM34.06 56.1a4.017 4.017 0 0 0-1.674.554.291.291 0 0 1-.294-.5 4.687 4.687 0 0 1 1.968-.633c.373-.036.369.546 0 .581zm10.986-12.334a5.556 5.556 0 0 0-3.146 2.741c-.171.334-.672.039-.5-.293a6.153 6.153 0 0 1 3.5-3.009c.347-.121.5.441.146.561zm1.22 6.98a.291.291 0 0 1-.582 0v-2.019a.291.291 0 0 1 .582 0zm16.554-.732v.007a15.17 15.17 0 0 1-1.476 3.947 6.643 6.643 0 0 1-6.06 3.585C52.7 57.361 50.55 55.526 49 53.582a.295.295 0 0 1 .206-.5A26.965 26.965 0 0 0 62.371 49.7a.251.251 0 0 1 .1-.04.264.264 0 0 1 .274.1.366.366 0 0 1 .071.252zM61.662 38.86c-.33.177-.623-.325-.293-.5a3.846 3.846 0 0 1 3.081-.264c.353.121.2.682-.154.56a3.274 3.274 0 0 0-2.634.206zm3.359 7.571c.072.366-.489.522-.561.155q-.217-1.108-.436-2.215c-.072-.367.489-.522.561-.155l.436 2.215zm-.893 8.131c-.248.282-.658-.131-.411-.411a3.939 3.939 0 0 0 .439-4.5.291.291 0 0 1 .5-.294 4.535 4.535 0 0 1-.53 5.206zm2.362 1.01c-.165.336-.667.041-.5-.293a7.332 7.332 0 0 0-.095-6.593c-.175-.331.328-.624.5-.293a7.944 7.944 0 0 1 .095 7.179z"></path><path class="c" d="M37.5 58.434a12.839 12.839 0 0 0 6.318 6.118 22.914 22.914 0 0 0 9.853 1.593 25.981 25.981 0 0 0 9.167-2.024l.087-.034c.19-.082.378-.173.567-.26a20.087 20.087 0 0 0 7.22-5.362 10.92 10.92 0 0 0 2.02-3.887c-.2-.006-.4-.022-.6-.034a9.847 9.847 0 0 1-1.292 2.779 15.329 15.329 0 0 1-3.335 3.406 21.97 21.97 0 0 1-3.943 2.43 24.837 24.837 0 0 1-8.81 2.341 24.407 24.407 0 0 1-9.415-.99 12.273 12.273 0 0 1-4.717-2.748 13.282 13.282 0 0 1-2.907-4.194c-.106-.237-.47-.154-.532.069a4.855 4.855 0 0 1-1.32 2.08 4.646 4.646 0 0 1-1.905 1.277c-1.515.445-2.975-.616-3.8-1.809-1.7-2.453-1.693-6.241 1.121-7.873a3.95 3.95 0 0 1 2.22-.553 5.928 5.928 0 0 1 2.572 1.005.3.3 0 0 0 .4-.112.286.286 0 0 0 .037-.139 18.437 18.437 0 0 1 4.063-10.781 26.343 26.343 0 0 1 8.85-7.325 22.885 22.885 0 0 1 9.492-2.24 12.7 12.7 0 0 1 4.507.518 9.057 9.057 0 0 1 3.915 3.2 23.884 23.884 0 0 1 2.954 5.215 30.033 30.033 0 0 1 1.868 6.046c.01.048.016.1.025.143q.406.749.831 1.486l-.03-.231a30.474 30.474 0 0 0-2.994-9.481c-.115-.223-.236-.443-.357-.663a27.208 27.208 0 0 0-1.1-1.842 12.236 12.236 0 0 0-3.979-4.006 9.6 9.6 0 0 0-4.327-.964 24.991 24.991 0 0 0-5.028.38 21.575 21.575 0 0 0-4.645 1.293 26.354 26.354 0 0 0-9.527 7.028 19.8 19.8 0 0 0-4.993 10.727c-.039.336-.063.672-.08 1.01a6.079 6.079 0 0 0-2.175-.82 4 4 0 0 0-.776-.015 4.369 4.369 0 0 0-.558.073 4.7 4.7 0 0 0-.927.282 5.167 5.167 0 0 0-2.979 3.622 6.925 6.925 0 0 0 .957 5.062c.844 1.355 2.355 2.615 4.05 2.434a4.435 4.435 0 0 0 2.509-1.318c.17-.16.333-.329.491-.5a6.091 6.091 0 0 0 .764-1.054c.065-.12.134-.236.193-.358z"></path><path class="c" d="M72.618 51.6q.3-.537.6-1.068-.007-.756-.073-1.509h-.575a18.473 18.473 0 0 1 .048 2.577zm-26.934-2.873v2.019a.291.291 0 0 0 .582 0v-2.019a.291.291 0 0 0-.582 0zm18.34-4.356.436 2.215c.072.367.633.211.561-.155q-.219-1.107-.436-2.215c-.072-.367-.633-.216-.561.155zm-19.133-1.166a6.153 6.153 0 0 0-3.5 3.009c-.169.332.332.627.5.293a5.556 5.556 0 0 1 3.148-2.741c.361-.12.208-.682-.148-.561zm19.559-5.111a3.846 3.846 0 0 0-3.081.264c-.33.177-.037.679.293.5a3.274 3.274 0 0 1 2.634-.206c.354.124.504-.437.154-.558zm-1.701 11.668a.264.264 0 0 0-.274-.1.251.251 0 0 0-.1.04A26.965 26.965 0 0 1 49.2 53.086a.294.294 0 0 0-.206.5c1.555 1.944 3.7 3.779 6.289 3.971a6.643 6.643 0 0 0 6.06-3.585 15.17 15.17 0 0 0 1.476-3.947v-.007a.366.366 0 0 0-.071-.252zM34.06 55.514a4.687 4.687 0 0 0-1.968.633.291.291 0 0 0 .294.5 4.017 4.017 0 0 1 1.674-.547c.369-.04.373-.622 0-.586zm30.096-5.864a3.939 3.939 0 0 1-.439 4.5c-.247.28.163.693.411.411a4.535 4.535 0 0 0 .53-5.206.291.291 0 0 0-.5.294zm1.737-.964a7.332 7.332 0 0 1 .095 6.593c-.165.334.337.629.5.293a7.944 7.944 0 0 0-.095-7.179c-.172-.331-.675-.038-.5.293z"></path><path class="e" d="M73.486 48.58c-.163-.266-.32-.536-.476-.806q-.425-.738-.83-1.486c-.335-.615-.666-1.233-1.006-1.846a.294.294 0 0 0-.531.07c-.538 1.394-1.185 2.743-1.722 4.137a.293.293 0 0 0 .208.359.347.347 0 0 0 .072.01h4.033a.3.3 0 0 0 .287-.308.307.307 0 0 0-.035-.13zm3.014 5.48a26.416 26.416 0 0 0-2.575-3.887.3.3 0 0 0-.406-.1.287.287 0 0 0-.1.1c-.069.116-.133.236-.2.354q-.307.531-.6 1.068c-.447.8-.894 1.609-1.37 2.4a.258.258 0 0 0-.054.11.268.268 0 0 0 .133.354.287.287 0 0 0 .067.025.129.129 0 0 0 .026.008.222.222 0 0 0 .039.012c.224.021.449.03.674.044.2.012.4.028.6.034 1.173.039 2.351-.009 3.519-.08a.3.3 0 0 0 .288-.3.3.3 0 0 0-.041-.142zm-.728 8.04a25.968 25.968 0 0 0-2.672-4.969.264.264 0 0 0-.21-.131.234.234 0 0 0-.294.136c-.784 1.686-1.873 3.21-2.657 4.9a.294.294 0 0 0 .114.4.287.287 0 0 0 .137.037h5.3a.293.293 0 0 0 .29-.3.357.357 0 0 0-.008-.073z"></path><path class="c" d="M94.679 92.074a58 58 0 0 0-5.261 3.174c-.311.206-.02.71.293.5a43.5 43.5 0 0 1 8.16-4.494c.136-.053.27-.111.408-.162.206-.076.414-.145.622-.215a37.055 37.055 0 0 1 7.427-1.534c2.046-.248 4.1-.443 6.148-.659.368-.039.372-.621 0-.582-3.34.352-6.713.6-10.015 1.24a27.885 27.885 0 0 0-2.975.746q-.492.151-.978.322a29.175 29.175 0 0 0-3.829 1.664zm32.462-5.29a11.006 11.006 0 0 0 7.679-3.147 9.565 9.565 0 0 0 2.38-7.307 15.087 15.087 0 0 0-1.4-5.125c-.156-.34-.657-.045-.5.293a12.336 12.336 0 0 1 1.034 8.212 8.4 8.4 0 0 1-4.521 5.4 11.9 11.9 0 0 1-4.672 1.088c-.373.02-.375.602 0 .586z"></path><path d="M99.485 105.22q-2.214.21-4.422.476a.2.2 0 0 0-.045.015.278.278 0 0 0-.206.129c-1.437 2.177-1.877 4.988-2.088 7.537a34.018 34.018 0 0 0-.117 2.793v.422a23.534 23.534 0 0 0 .54 4.871 9.956 9.956 0 0 0 .418 1.416 1.742 1.742 0 0 0 .274.581 1.2 1.2 0 0 0 .515.179c.191.052.383.1.574.158 1.336.372 2.665.768 4 1.164.062-.121.12-.243.183-.363a.27.27 0 0 1 .214-.126.292.292 0 0 1 .114-.007l1.243.322 7.983 2.067a7.052 7.052 0 0 1-.807-5.109c.181-.849.572-1.905 1.568-2.01a1.827 1.827 0 0 1 1.637.813 40.764 40.764 0 0 1 1.149-10.82c.344-1.31 1-3.5 2.249-4.548a2.43 2.43 0 0 1 1.111-.546 116.129 116.129 0 0 0-16.087.586z" style="fill:#ff8684"></path><path class="c" d="M128.444 62.383a20.682 20.682 0 0 0-5.415-3.882 33.1 33.1 0 0 0-5.847-2.034c-1.287-.346-2.58-.675-3.866-1.029a.291.291 0 0 0-.154.561c4.063 1.117 8.307 1.929 11.864 4.317a21.375 21.375 0 0 1 3.007 2.478c.267.262.679-.149.411-.411zm10.396 3.582 4.262-5.438c.228-.291-.181-.7-.412-.411l-4.261 5.437c-.229.292.18.706.411.412zm9.15.442-7.26.988c-.369.051-.212.611.155.561l7.26-.988c.369-.051.212-.611-.155-.561zm46.986 74.128a18.382 18.382 0 0 0-2.119-6.588c-1.273-2.559-2.944-4.892-4.256-7.428a26.059 26.059 0 0 1-1.332-3.286c-1.127-3.177-2.091-6.414-3.023-9.654a8.448 8.448 0 0 1-.374.765c-1.546 2.8-4.673 4.72-7.907 3.816-.124.341-.257.679-.405 1.01-.016.532-.033 1.064-.041 1.6-.035 2.357.035 4.714.019 7.07a47.314 47.314 0 0 1-.508 6.789c-.032.21-.064.418-.1.623a16.2 16.2 0 0 1 6.37 5.229 42.258 42.258 0 0 1 5.14 8.938 77.732 77.732 0 0 1 1.816 4.51c.08.215.165.427.243.642.705-.954 1.5-1.842 2.205-2.8a23.912 23.912 0 0 0 2.737-4.679 22.941 22.941 0 0 0 1.107-3.147 10.018 10.018 0 0 0 .428-3.41zM181.345 102.9a23.82 23.82 0 0 0-1.562-4.852 19.653 19.653 0 0 0-4.613-5.941 16.853 16.853 0 0 0-2.879-2.13 16.148 16.148 0 0 0-3.276-1.374 19.79 19.79 0 0 0-7.233-.785c-.514.041-1.026.109-1.534.2-3.522-2.507-8.389-2.733-12.429-1.479a16.143 16.143 0 0 0-5.6 3.469 43.663 43.663 0 0 0-6.195 6.882 69.179 69.179 0 0 0-5.952 9.627 78.644 78.644 0 0 0-2.895 6.32c.067.027.137.049.2.082a2.363 2.363 0 0 1 1.082 2.97 3.7 3.7 0 0 1-2.564 2.361c-.032.006-.064 0-.1.009a2.547 2.547 0 0 1-.617.007 74.509 74.509 0 0 0-.671 2.2 2.771 2.771 0 0 1 .5.345 2.66 2.66 0 0 1 .491.557 2.6 2.6 0 0 1-.975 3.538 2.63 2.63 0 0 1-.622.253 2.831 2.831 0 0 1-.615.086 70.786 70.786 0 0 0-1.084 6.205 64.238 64.238 0 0 0-.518 6.943q-.034 1.746.031 3.492a20.181 20.181 0 0 0 .288 3.142 10.581 10.581 0 0 0 5.438 7.18c.215.121.435.231.654.341.123-.158.247-.313.368-.471 1.007-1.321 1.963-2.683 2.947-4.019 2.975-4.039 6.212-8.048 10.445-10.834a20.732 20.732 0 0 1 4.132-2.108c-.194-.915-.307-1.862-.414-2.776a37.952 37.952 0 0 1-.242-3.887c-.011-.813 0-1.625.018-2.438-.273-.179-.547-.356-.807-.555a15.606 15.606 0 0 1-5.336-8 19.309 19.309 0 0 1-.267-9.848 13.875 13.875 0 0 1 2.025-4.663 17.485 17.485 0 0 1 3.5-3.723 19.352 19.352 0 0 1 4.488-2.771 18.953 18.953 0 0 1 4.887-1.356 23.122 23.122 0 0 1 9.387.678 20.746 20.746 0 0 1 3.82 1.474 15.343 15.343 0 0 1 3.3 2.308 19.575 19.575 0 0 1 5.921 9.294c1.094-1.367 2.465-2.728 4.3-2.8a3.536 3.536 0 0 1 1.024.114 3.694 3.694 0 0 1 .668.247c-.31-1.177-.622-2.344-.914-3.514zM131.179 122c-.222.3-.727.006-.5-.294a6.4 6.4 0 0 0 1.021-4.44 10.188 10.188 0 0 0-1.816-4.671c-.211-.311.293-.6.5-.294a10.79 10.79 0 0 1 1.9 4.965 6.886 6.886 0 0 1-1.1 4.734zm2.91 1.015c-.2.316-.7.024-.5-.294a8.766 8.766 0 0 0 1.091-2.5 9.243 9.243 0 0 0-2.551-8.82c-.267-.263.145-.674.412-.411a10.165 10.165 0 0 1 1.792 2.357 9.575 9.575 0 0 1-.241 9.664zm3.058 1.018c-.181.328-.683.034-.5-.294a11.416 11.416 0 0 0 1.172-3.1 12.11 12.11 0 0 0-3.18-10.834c-.259-.271.152-.682.411-.411a13.205 13.205 0 0 1 2.109 2.893 12.34 12.34 0 0 1-.01 11.745zm5.825-52.963c-.364-.087-.519.474-.155.56l4.862 1.152c.364.087.519-.474.154-.56zm-24.813 39.645a2.358 2.358 0 0 1-.283-2.894c.038-.069.084-.131.126-.2a8.427 8.427 0 0 0-.54-1.273 3.511 3.511 0 0 0-.557-.8 1.211 1.211 0 0 0-.263-.221.575.575 0 0 0-.254-.111c-1.07-.239-1.885.624-2.409 1.517a14.2 14.2 0 0 0-1.447 4.141 38 38 0 0 0-.734 5.191.276.276 0 0 1 .175.009h.011a.207.207 0 0 1 .033.01 3.928 3.928 0 0 1 1.905 3.075 2.753 2.753 0 0 1-2.029 2.963.262.262 0 0 1-.108 0 8.686 8.686 0 0 0 .765 1.94 2.79 2.79 0 0 0 2.07 1.515 3.014 3.014 0 0 0 2.5-1.421 7.787 7.787 0 0 0 1.151-2.593 33.9 33.9 0 0 0 .583-5.963.306.306 0 0 1 .232-.275 31.219 31.219 0 0 0-.293-4.155 2.788 2.788 0 0 1-.634-.455zm-.927 6.174a2.384 2.384 0 0 1-2.226.52 2.846 2.846 0 0 1-1.693-1.428 4.431 4.431 0 0 1-.232-2.636 2.811 2.811 0 0 1 1.709-2.185 3.286 3.286 0 0 1 1.91-.121 2.733 2.733 0 0 1 1.648 1.378 3.718 3.718 0 0 1-1.116 4.472zm19.058-48.361a3.977 3.977 0 0 0-1.558-2.427 11.25 11.25 0 0 0-2.561-1.453 8.094 8.094 0 0 1-2.591-1.607.293.293 0 0 0-.414.012.3.3 0 0 0-.072.271 20.37 20.37 0 0 0 1.5 4.94c.535 1.159 1.382 2.718 2.755 3.013a2.637 2.637 0 0 0 2.923-2.316 2.722 2.722 0 0 0 .014-.433zm-2.4-1.227.776.581c.3.222.006.726-.293.5l-.773-.582c-.3-.219-.011-.724.288-.5zm-8.211 18.938a4.341 4.341 0 0 1-3.17-1.105 8.626 8.626 0 0 0-2.76-1.479 2.7 2.7 0 0 0-2.567.524 12.16 12.16 0 0 0-1.5 1.96 10.736 10.736 0 0 1-.934 1.191 2.115 2.115 0 0 1-.909.642.239.239 0 0 0-.118.053.259.259 0 0 0-.114.25v.037c0 .013 0 .022.008.033a.27.27 0 0 0 .107.155l.038.02a.27.27 0 0 0 .044.024 8.935 8.935 0 0 1 3.121 1.157 14.889 14.889 0 0 1 1.232 1.1 2.813 2.813 0 0 0 1.082.782c2.037.667 3.458-1.484 4.539-2.821.32-.4.648-.788 1-1.153a3.007 3.007 0 0 1 1.043-.8.291.291 0 0 0-.155-.561zm-5.579-1.127a2.957 2.957 0 0 0-1.936.965c-.253.277-.664-.136-.411-.411a3.553 3.553 0 0 1 2.347-1.135c.374-.032.371.55 0 .581zM88.332 96.137a40.048 40.048 0 0 0-5.385 2.1 11.044 11.044 0 0 0-2.355 1.5 3.2 3.2 0 0 0-1.133 1.725 2.527 2.527 0 0 0 .952 2.254 3.131 3.131 0 0 0 1.863.89 2.976 2.976 0 0 0 1.853-.574A10.688 10.688 0 0 0 87.32 99.8a28.657 28.657 0 0 0 1.369-3.3.294.294 0 0 0-.208-.358.29.29 0 0 0-.149-.005zM83 99.659a4.848 4.848 0 0 0-2.079 2.11c-.169.334-.671.039-.5-.293a5.37 5.37 0 0 1 2.288-2.319c.332-.175.625.327.291.502z"></path><path class="h" d="M113.922 119.162a3.928 3.928 0 0 0-1.905-3.075.207.207 0 0 0-.033-.01h-.011a.276.276 0 0 0-.175-.009l-.025.009a.265.265 0 0 0-.184.22v.023a.174.174 0 0 0 0 .022l-.051 5.054c.095.245.179.491.256.738a.262.262 0 0 0 .108 0 2.753 2.753 0 0 0 2.02-2.972zm4.426-6.745a2.733 2.733 0 0 0-1.648-1.378 3.286 3.286 0 0 0-1.91.121 2.811 2.811 0 0 0-1.709 2.185 4.431 4.431 0 0 0 .232 2.636 2.846 2.846 0 0 0 1.693 1.428 2.384 2.384 0 0 0 2.226-.52 3.718 3.718 0 0 0 1.116-4.472zm72.052 47.931q-.873-2.915-1.9-5.781c-.078-.215-.163-.427-.243-.642a77.732 77.732 0 0 0-1.816-4.51 42.258 42.258 0 0 0-5.14-8.938 16.2 16.2 0 0 0-6.37-5.229q-.051.293-.12.578a4.268 4.268 0 0 1-.516 1.3 6.659 6.659 0 0 1-1.619 1.712 16.736 16.736 0 0 1-5.378 2.554 32.216 32.216 0 0 1-6.772 1.258 19.115 19.115 0 0 1-6.951-.523 13.018 13.018 0 0 1-5.035-2.738 7.547 7.547 0 0 1-2.3-3.29c-.042-.138-.072-.281-.108-.421-.048-.188-.1-.374-.14-.565a20.732 20.732 0 0 0-4.132 2.108c-4.233 2.786-7.47 6.795-10.445 10.834-.984 1.336-1.94 2.7-2.947 4.019-.121.158-.245.313-.368.471-.167.213-.33.43-.5.641a11.258 11.258 0 0 1-5.157 3.946c-3.7 1.2-6.825-1.509-8-4.857a21.832 21.832 0 0 1-.981-5.369 40.95 40.95 0 0 1-.14-5.6 28.247 28.247 0 0 1 .336-3.191v-.039a.293.293 0 0 1-.268.184 66.568 66.568 0 0 0-4.239-.021c-4.986.127-9.946.7-14.912 1.131a.235.235 0 0 1-.267-.2.277.277 0 0 1-.015-.121c0 .009-.014.013-.016.023-1.914 7.761-3.311 16.117-1.032 23.95a25.913 25.913 0 0 0 4.9 9.4 21.54 21.54 0 0 0 9.124 6.354 38.831 38.831 0 0 0 13.5 2.016h74.28a.3.3 0 0 0 .29-.3.373.373 0 0 0-.009-.067 168.367 168.367 0 0 0-4.594-20.077zm-16.279 14.822.2-14.6a.291.291 0 0 1 .581 0l-.058 4.181-.2 14.6a.291.291 0 0 1-.582 0zm-46.439-62.063a2.294 2.294 0 0 0-.3-.193c-.065-.033-.135-.055-.2-.082a3.18 3.18 0 0 0-3.053.472 3.247 3.247 0 0 0-1.014 3.435 2.572 2.572 0 0 0 2.691 1.515c.032-.005.064 0 .1-.009a3.7 3.7 0 0 0 2.564-2.361 2.342 2.342 0 0 0-.788-2.777zm-6.869-6.798a2.687 2.687 0 0 0-2.39.776 3.271 3.271 0 0 0-.421.539c-.042.066-.088.128-.126.2a2.358 2.358 0 0 0 .283 2.894 2.788 2.788 0 0 0 .631.463 3.058 3.058 0 0 0 .613.243 2.692 2.692 0 0 0 3.5-2.81 2.439 2.439 0 0 0-2.09-2.305z"></path><path class="i" d="M121.642 120.688c.008-.228.018-.457.022-.683a5.068 5.068 0 0 0-2.264-3.879 25.688 25.688 0 0 1-.679 5.979c-.511 1.682-1.59 3.715-3.509 4.027-1.894.308-3.134-1.376-3.721-2.947-.333-.889-.415-2.153-1.308-2.69a.937.937 0 0 0-1.309.194 3.27 3.27 0 0 0-.475 1.3 6.106 6.106 0 0 0 1.2 5.154.3.3 0 0 1 .05.075 3.6 3.6 0 0 0 2.42 1.34c.369.04.371.622 0 .582a4.23 4.23 0 0 1-2.844-1.535l-1.151-.3-8.563-2.218q-.639 1.227-1.191 2.5a72.257 72.257 0 0 0-3.7 11.165q1.908-.167 3.815-.348a115.776 115.776 0 0 1 14.717-.732 18.93 18.93 0 0 1 1.7-5.224 13.557 13.557 0 0 1 3.2-4.112 19.522 19.522 0 0 0 1.96-1.578 5.261 5.261 0 0 0 1.051-1.975c.048-.157.078-.321.119-.481a3.14 3.14 0 0 1-.595-1.176 2.444 2.444 0 0 1 1.055-2.438z"></path><path class="c" d="M94.235 139.362c4.966-.429 9.926-1 14.912-1.131a66.603 66.603 0 0 1 4.24.021.292.292 0 0 0 .267-.184.151.151 0 0 0 .013-.029 15.426 15.426 0 0 1 4.874-9.365 14.653 14.653 0 0 0 1.99-1.637 6.031 6.031 0 0 0 1.066-2.023c.028-.085.049-.171.074-.257a2.582 2.582 0 0 1-.489-.462c-.041.16-.071.324-.119.481a5.261 5.261 0 0 1-1.051 1.975 19.522 19.522 0 0 1-1.96 1.578 13.572 13.572 0 0 0-3.2 4.112 18.93 18.93 0 0 0-1.7 5.224 115.776 115.776 0 0 0-14.717.732q-1.906.178-3.815.348a72.257 72.257 0 0 1 3.7-11.165q.553-1.267 1.191-2.5l8.563 2.218 1.151.3c-.04-.048-.082-.094-.121-.144-.226-.3.279-.588.5-.293l.042.05a.3.3 0 0 0-.05-.075 6.106 6.106 0 0 1-1.2-5.154 3.27 3.27 0 0 1 .475-1.3.937.937 0 0 1 1.309-.194c.893.537.975 1.8 1.308 2.69.587 1.571 1.827 3.255 3.721 2.947 1.919-.312 3-2.345 3.509-4.027a25.688 25.688 0 0 0 .679-5.979 5.068 5.068 0 0 1 2.264 3.879c0 .226-.014.455-.022.683a2.983 2.983 0 0 1 .589-.348l.01-.2a5.627 5.627 0 0 0-2.586-4.535c-.121-.083-.242-.171-.367-.243a.267.267 0 0 0-.2-.024.306.306 0 0 0-.232.275 33.9 33.9 0 0 1-.583 5.963 7.766 7.766 0 0 1-1.151 2.593 3.014 3.014 0 0 1-2.5 1.421 2.79 2.79 0 0 1-2.07-1.515 8.686 8.686 0 0 1-.765-1.94 11.52 11.52 0 0 0-.256-.738c-.009-.023-.015-.047-.024-.07a3.253 3.253 0 0 0-.444-.774 1.827 1.827 0 0 0-1.637-.813c-1 .105-1.387 1.161-1.568 2.01a7.052 7.052 0 0 0 .807 5.109l-7.983-2.068-1.243-.321a.292.292 0 0 0-.114.007.27.27 0 0 0-.214.126c-.063.12-.121.242-.183.363a59 59 0 0 0-4.016 10.5q-.513 1.758-.955 3.535a.527.527 0 0 0 .013.171.235.235 0 0 0 .268.197z"></path><path class="i" d="M145.966 129.976a33.694 33.694 0 0 0 .424 3.957 9.82 9.82 0 0 0 .631 2.576 8.614 8.614 0 0 0 2.823 3.182 13.377 13.377 0 0 0 5.511 2.248 22.766 22.766 0 0 0 6.86-.054 29.326 29.326 0 0 0 6.4-1.553 11.937 11.937 0 0 0 4.6-2.752 4.123 4.123 0 0 0 1.02-1.737 14.866 14.866 0 0 0 .281-1.638q.131-.9.221-1.8c.405-4 .178-8.029.223-12.044-.031.056-.06.113-.093.168a16.862 16.862 0 0 1-7.911 6.711 25.514 25.514 0 0 1-12 1.712 20.845 20.845 0 0 1-9.023-2.58 50.367 50.367 0 0 0 .033 3.604z"></path><path class="c" d="M175.538 127.836c.016-2.356-.054-4.713-.019-7.07.008-.532.025-1.064.041-1.6a13.328 13.328 0 0 1-.607 1.191c-.045 4.015.182 8.046-.223 12.044q-.09.9-.221 1.8a14.866 14.866 0 0 1-.281 1.638 4.123 4.123 0 0 1-1.02 1.737 11.937 11.937 0 0 1-4.6 2.752 29.326 29.326 0 0 1-6.4 1.553 22.766 22.766 0 0 1-6.86.054 13.377 13.377 0 0 1-5.511-2.248 8.614 8.614 0 0 1-2.823-3.182 9.82 9.82 0 0 1-.631-2.576 33.694 33.694 0 0 1-.424-3.957c-.06-1.2-.059-2.4-.037-3.6a13.847 13.847 0 0 1-.574-.364 68.331 68.331 0 0 0-.018 2.438 37.952 37.952 0 0 0 .242 3.887c.107.914.22 1.861.414 2.776.041.191.092.377.14.565.036.14.066.283.108.421a7.547 7.547 0 0 0 2.3 3.29 13.018 13.018 0 0 0 5.035 2.738 19.115 19.115 0 0 0 6.951.523 32.216 32.216 0 0 0 6.772-1.258 16.736 16.736 0 0 0 5.378-2.554 6.659 6.659 0 0 0 1.619-1.712 4.268 4.268 0 0 0 .516-1.3q.069-.285.12-.578c.035-.2.067-.413.1-.623a47.314 47.314 0 0 0 .513-6.785z"></path><path class="h" d="M125.5 121.361a2.66 2.66 0 0 0-.491-.557 2.771 2.771 0 0 0-.5-.345 2.6 2.6 0 0 0-1.858-.265 2.746 2.746 0 0 0-.423.146 2.983 2.983 0 0 0-.589.348 2.444 2.444 0 0 0-1.055 2.431 3.14 3.14 0 0 0 .595 1.176 2.582 2.582 0 0 0 .489.462 2.469 2.469 0 0 0 .88.409 2.886 2.886 0 0 0 .741.072 2.831 2.831 0 0 0 .615-.086 2.6 2.6 0 0 0 1.6-3.791z"></path><path class="i" d="M176.393 109.618a.3.3 0 0 1-.406.093.291.291 0 0 1-.125-.163 16.537 16.537 0 0 0-.868-2.7 18.971 18.971 0 0 0-3.056-4.822 18.532 18.532 0 0 0-3.692-3.41 19.244 19.244 0 0 0-7.168-2.753 21.415 21.415 0 0 0-9.3.228 18.7 18.7 0 0 0-8.624 5.1 14.36 14.36 0 0 0-2.811 4.037 15.486 15.486 0 0 0-1.219 4.742 18.331 18.331 0 0 0 1.374 9.323 14.292 14.292 0 0 0 6.531 7.039 23.1 23.1 0 0 0 10.773 2.136 22.113 22.113 0 0 0 11.006-2.818 15.011 15.011 0 0 0 6.693-7.911.3.3 0 0 1 .357-.2 6.069 6.069 0 0 0 6.318-1.822 6.845 6.845 0 0 0 1.891-6.353 3.729 3.729 0 0 0-3.6-2.727c-1.767.11-3.077 1.676-4.074 2.981zm-33.048-5.734a4.655 4.655 0 0 1 4.688-1.271.291.291 0 0 1-.154.561 4.07 4.07 0 0 0-4.122 1.121c-.257.274-.666-.138-.412-.411zm4.64 8.449a1.956 1.956 0 0 1-3.106.431 3.144 3.144 0 0 1-.793-2.329.291.291 0 0 1 .581 0c0 .838.2 1.873 1.088 2.2a1.287 1.287 0 0 0 1.659-.447 3.847 3.847 0 0 0 .251-1.754.291.291 0 0 1 .582 0 4.784 4.784 0 0 1-.262 1.899zm16.169 4.322a8.79 8.79 0 0 1-1.249 2.37 7.413 7.413 0 0 1-6.295 2.888c-3.122-.123-5.589-2.693-7.124-5.189a.292.292 0 0 1 .11-.4.289.289 0 0 1 .141-.038c4.712.079 9.424-.079 14.137 0a.275.275 0 0 1 .165.059.242.242 0 0 1 .115.31zm1.294-13.829a4.145 4.145 0 0 1 4.537 1.428c.228.3-.277.586-.5.293a3.559 3.559 0 0 0-3.881-1.161c-.359.114-.51-.444-.156-.56zm4.765 9.4a1.957 1.957 0 0 1-3.106.431 3.146 3.146 0 0 1-.794-2.329.291.291 0 0 1 .582 0c0 .838.2 1.873 1.087 2.2a1.289 1.289 0 0 0 1.66-.447 3.876 3.876 0 0 0 .251-1.754.291.291 0 0 1 .581 0 4.786 4.786 0 0 1-.261 1.898zm10.144.117-3.623 2.375c-.314.206-.605-.3-.293-.5l3.622-2.375c.314-.209.605.295.294.499z"></path><path class="c" d="M180.567 106.043c-1.834.071-3.205 1.432-4.3 2.8a19.575 19.575 0 0 0-5.921-9.294 15.343 15.343 0 0 0-3.3-2.308 20.746 20.746 0 0 0-3.82-1.474 23.122 23.122 0 0 0-9.387-.678 18.953 18.953 0 0 0-4.887 1.356 19.352 19.352 0 0 0-4.488 2.771 17.485 17.485 0 0 0-3.5 3.723 13.9 13.9 0 0 0-2.025 4.663 19.309 19.309 0 0 0 .267 9.848 15.606 15.606 0 0 0 5.336 8c.26.2.535.375.807.555.19.125.379.249.574.364a20.859 20.859 0 0 0 9.023 2.58 25.527 25.527 0 0 0 12-1.712 16.862 16.862 0 0 0 7.911-6.711c.033-.055.062-.112.093-.168a13.328 13.328 0 0 0 .607-1.191c.148-.331.281-.669.405-1.01 3.234.9 6.361-1.018 7.907-3.816a8.338 8.338 0 0 0 .374-.766 7.878 7.878 0 0 0 .353-.979 6.177 6.177 0 0 0 .032-3.4 4.723 4.723 0 0 0-2.372-2.8 3.694 3.694 0 0 0-.668-.247 3.5 3.5 0 0 0-1.021-.106zm3.5 3.314a6.845 6.845 0 0 1-1.891 6.353 6.068 6.068 0 0 1-6.317 1.822.3.3 0 0 0-.358.2 15.011 15.011 0 0 1-6.693 7.911 22.113 22.113 0 0 1-11.006 2.818 23.1 23.1 0 0 1-10.773-2.136 14.292 14.292 0 0 1-6.531-7.039 18.341 18.341 0 0 1-1.374-9.323 15.486 15.486 0 0 1 1.219-4.742 14.342 14.342 0 0 1 2.812-4.037 18.7 18.7 0 0 1 8.623-5.1 21.415 21.415 0 0 1 9.3-.228 19.244 19.244 0 0 1 7.168 2.753 18.532 18.532 0 0 1 3.692 3.41 18.971 18.971 0 0 1 3.056 4.822 16.537 16.537 0 0 1 .868 2.7.295.295 0 0 0 .531.07c1-1.3 2.308-2.871 4.077-2.988a3.729 3.729 0 0 1 3.6 2.734z"></path><path class="c" d="m180.063 111.84-3.622 2.375c-.312.2-.021.708.293.5l3.623-2.375c.311-.202.02-.706-.294-.5zm-10.17-1.513a3.876 3.876 0 0 1-.251 1.754 1.289 1.289 0 0 1-1.66.447c-.887-.329-1.087-1.363-1.087-2.2a.291.291 0 0 0-.582 0 3.146 3.146 0 0 0 .794 2.329 1.957 1.957 0 0 0 3.106-.431 4.784 4.784 0 0 0 .261-1.9.291.291 0 0 0-.581 0zm-22.014-7.153a.291.291 0 0 0 .154-.561 4.655 4.655 0 0 0-4.688 1.271c-.254.273.156.685.412.411a4.07 4.07 0 0 1 4.122-1.121zm16.16 13.172a.275.275 0 0 0-.165-.059c-4.713-.079-9.425.079-14.137 0a.292.292 0 0 0-.289.3.278.278 0 0 0 .038.14c1.535 2.5 4 5.066 7.124 5.189a7.413 7.413 0 0 0 6.295-2.888 8.79 8.79 0 0 0 1.249-2.37.242.242 0 0 0-.115-.312zm5.444-11.799c.225.293.73 0 .5-.293a4.145 4.145 0 0 0-4.537-1.428c-.354.116-.2.678.154.56a3.559 3.559 0 0 1 3.883 1.161zm-21.818 5.888a3.847 3.847 0 0 1-.251 1.754 1.287 1.287 0 0 1-1.659.447c-.887-.328-1.088-1.363-1.088-2.2a.291.291 0 0 0-.581 0 3.144 3.144 0 0 0 .793 2.329 1.956 1.956 0 0 0 3.106-.431 4.8 4.8 0 0 0 .262-1.9.291.291 0 0 0-.582 0zM42.975 97.728q-3.06.359-6.139.5c-.373.017-.375.6 0 .581A89.5 89.5 0 0 0 47.888 97.6 120.035 120.035 0 0 0 59.7 94.905a186.97 186.97 0 0 0 7.137-2.147l.215-.067c.355-.115.2-.676-.155-.561h-.01c-4.146 1.335-8.331 2.558-12.572 3.557a100.934 100.934 0 0 1-11.34 2.041z"></path><path class="a" d="M100.805 67.1a3.307 3.307 0 0 0 .348-1.81c-.036-.369-.618-.373-.582 0a2.728 2.728 0 0 1-.268 1.516c-.166.334.335.629.502.294zm6.382-.291a3.9 3.9 0 0 0 .6-1.674c.046-.371-.536-.367-.582 0a3.254 3.254 0 0 1-.516 1.38c-.209.315.294.607.498.294zM42.975 97.728q-3.06.359-6.139.5c-.373.017-.375.6 0 .581A89.5 89.5 0 0 0 47.888 97.6 120.035 120.035 0 0 0 59.7 94.905a186.97 186.97 0 0 0 7.137-2.147l.215-.067c.355-.115.2-.676-.155-.561h-.01c-4.146 1.335-8.331 2.558-12.572 3.557a100.934 100.934 0 0 1-11.34 2.041zm45.357-1.591a40.048 40.048 0 0 0-5.385 2.1 11.044 11.044 0 0 0-2.355 1.5 3.2 3.2 0 0 0-1.133 1.725 2.527 2.527 0 0 0 .952 2.254 3.131 3.131 0 0 0 1.863.89 2.976 2.976 0 0 0 1.853-.574A10.688 10.688 0 0 0 87.32 99.8a28.657 28.657 0 0 0 1.369-3.3.294.294 0 0 0-.208-.358.29.29 0 0 0-.149-.005z"></path><path class="c" d="m79.161 109.382-.25.172a5.352 5.352 0 0 0-.066.564v.172a85.084 85.084 0 0 0 10.321-8.457A91.186 91.186 0 0 0 98.9 90.879c-.208.07-.416.138-.622.215-.138.051-.272.109-.408.162a90.662 90.662 0 0 1-7.87 8.957 85.4 85.4 0 0 1-10.839 9.169z"></path><path class="c" d="M78.911 109.554a10.776 10.776 0 0 1 2.3-4.6c.224-.3-.281-.59-.5-.293a11.013 11.013 0 0 0-2.392 4.883c-.021.149-.027.3-.037.446a6.378 6.378 0 0 0-.006.7 9.521 9.521 0 0 0 1.346 4.146 6.482 6.482 0 0 0 3.463 3.007 9.57 9.57 0 0 0 4.519.37 15.047 15.047 0 0 0 4.962-1.589.279.279 0 0 0 .042-.035v-.422a.278.278 0 0 0-.333-.045 12.19 12.19 0 0 1-8.375 1.364 5.8 5.8 0 0 1-3.391-2.315 8.714 8.714 0 0 1-1.661-4.884v-.172a5.352 5.352 0 0 1 .063-.561z"></path><path d="M76.532 111.777q-2.827 1.674-5.8 3.086a64.326 64.326 0 0 1-5.876 2.438 56.588 56.588 0 0 1-19.323 3.336c-2.407 0-4.81-.159-7.2-.4-1.777-.177-3.549-.417-5.33-.551-.371-.028-.373-.61 0-.582.183.014.367.029.55.046 1.85.165 3.693.408 5.542.579a69.791 69.791 0 0 0 7.343.318 55.88 55.88 0 0 0 9.036-.848 57.766 57.766 0 0 0 10.461-2.915 68.521 68.521 0 0 0 11.526-5.752l.056-.034q-1.159-1.852-2.268-3.737c-.2-.337-.394-.676-.592-1.014-1.213-2.077-2.413-4.163-3.674-6.212-1.385-2.252-2.877-4.454-4.138-6.78a186.476 186.476 0 0 1-7.138 2.147A119.95 119.95 0 0 1 47.888 97.6a89.5 89.5 0 0 1-11.052 1.211c-.375.018-.373-.564 0-.581q3.077-.141 6.139-.5a100.934 100.934 0 0 0 11.343-2.04c4.241-1 8.426-2.222 12.572-3.557a45.392 45.392 0 0 0 5.893-2.98c.213-.129.419-.266.628-.4.168-.107.338-.211.5-.32a24.641 24.641 0 0 0-2.107-4.8 29.092 29.092 0 0 0-4.689-6.056 21.106 21.106 0 0 0-6.194-4.2 5.536 5.536 0 0 1-.39.448 5.728 5.728 0 0 1-2.486 1.517c-4.3 1.284-9.039 2.26-13.483 1.057a15.685 15.685 0 0 1-5.508-2.9 12.528 12.528 0 0 1-2.307-2.153 5.434 5.434 0 0 1-1.021-2.546c-.009-.061-.025-.12-.031-.181-.015-.131-.013-.265-.018-.4-.039 0-.079 0-.119.008A28.762 28.762 0 0 0 23 72.664a38.014 38.014 0 0 0-9.855 9.307A46.237 46.237 0 0 0 9.4 87.845c-.823 1.53-1.527 3.106-2.214 4.7-.185.431-.365.862-.527 1.3a27.893 27.893 0 0 0-1.559 6.98 22.579 22.579 0 0 0 .07 4.834 19.068 19.068 0 0 0 1.391 5.174 18.091 18.091 0 0 0 3.27 5.026 22.765 22.765 0 0 0 5.655 4.407 36.783 36.783 0 0 0 8.64 3.4 66.779 66.779 0 0 0 12.16 1.935 73.252 73.252 0 0 0 15.546-.239 34.592 34.592 0 0 0 11.936-3.722 22.826 22.826 0 0 0 7.405-6.4 5.257 5.257 0 0 1 .314-.437 3.079 3.079 0 0 1 .811-.467q.945-.508 1.873-1.048 1.959-1.14 3.838-2.408l.011-.01q-.741.463-1.488.907z" style="fill:#9cf0f0"></path><path class="f" d="M106.507 77.333a50.686 50.686 0 0 0 4.077-12.157 19.08 19.08 0 0 0 .448-6.281 10.79 10.79 0 0 0-3.167-6.178c-.2-.186-.525-.462-.787-.223a1.054 1.054 0 0 0-.244.6 9.9 9.9 0 0 0 .057 2.014l.259 4.773c.02.376-.556.371-.582 0a14.523 14.523 0 0 0-.893-4.106 14.094 14.094 0 0 0-.816-1.78 5.535 5.535 0 0 0-.948-1.365 1.988 1.988 0 0 0-1.318-.677.955.955 0 0 0-.839 1.023 9.132 9.132 0 0 0 .189 1.664 13.682 13.682 0 0 1 .125 1.961 13.952 13.952 0 0 1-.59 3.877.292.292 0 0 1-.571-.077 23.521 23.521 0 0 0-.523-4.344 8.984 8.984 0 0 0-.733-2c-.273-.526-.7-1.4-1.362-1.482-.955-.122-1.132 1.424-1.139 2.071a21.885 21.885 0 0 1-.206 3.144 12.735 12.735 0 0 1-2.453 6.152 9.7 9.7 0 0 1-5.4 3.305 8.315 8.315 0 0 1-2.2.191 30.715 30.715 0 0 1 1.956 3.262 8.928 8.928 0 0 1 .5 1.067c.112.333-.256.682-.433.948q-.659.99-1.33 1.97a60.565 60.565 0 0 1-9.094 10.939 39.937 39.937 0 0 1-11.1 6.922c.681 1.243 1.438 2.443 2.19 3.644a258.006 258.006 0 0 1 4.359 7.175c1.332 2.287 2.662 4.575 4.065 6.82l.284-.2c.01-.149.016-.3.037-.446a11.013 11.013 0 0 1 2.392-4.883c.221-.3.726-.007.5.293a10.776 10.776 0 0 0-2.3 4.6l.25-.172A85.4 85.4 0 0 0 90 100.213a90.662 90.662 0 0 0 7.876-8.957 43.5 43.5 0 0 0-8.16 4.494c-.313.208-.6-.3-.293-.5a58 58 0 0 1 5.261-3.174 29.175 29.175 0 0 1 3.829-1.662c.3-.392.6-.777.889-1.174a74.981 74.981 0 0 0 7.105-11.907zm.178-10.818a3.254 3.254 0 0 0 .516-1.38c.046-.367.628-.371.582 0a3.9 3.9 0 0 1-.6 1.674c-.2.313-.707.021-.5-.294zm-6.382.291a2.728 2.728 0 0 0 .268-1.516c-.036-.373.546-.369.582 0a3.307 3.307 0 0 1-.348 1.81c-.167.335-.668.04-.505-.294zM88.689 96.5a28.657 28.657 0 0 1-1.369 3.3 10.688 10.688 0 0 1-3.193 4.23 2.976 2.976 0 0 1-1.853.574 3.131 3.131 0 0 1-1.863-.89 2.527 2.527 0 0 1-.952-2.254 3.2 3.2 0 0 1 1.133-1.725 11.044 11.044 0 0 1 2.355-1.5 40.048 40.048 0 0 1 5.385-2.1.293.293 0 0 1 .357.358z"></path><path class="c" d="M109.406 53.569a10.831 10.831 0 0 0-1.13-1.263c-.464-.428-1.155-.735-1.654-.174a2.514 2.514 0 0 0-.374 1.834l.109 2.011c-.023-.064-.04-.131-.063-.2a15.158 15.158 0 0 0-.827-1.878 6.837 6.837 0 0 0-1.043-1.578c-.693-.729-1.951-1.417-2.806-.525s-.279 2.417-.184 3.479a13.276 13.276 0 0 1-.093 3.047 10.819 10.819 0 0 0-1.706-5.414A1.936 1.936 0 0 0 98.317 52a1.286 1.286 0 0 0-1.106.469 4.052 4.052 0 0 0-.636 2.708 15.337 15.337 0 0 1-1.5 6.79 9.013 9.013 0 0 1-5.062 4.43 8.426 8.426 0 0 1-2.579.467c-.163 0-.326-.01-.49-.017-.1 0-.21 0-.315-.011h-.009l-.116-.013h-.032c-.027 0-.054-.008-.08-.013a.331.331 0 0 0-.246.056.262.262 0 0 0-.09.359l.007.012a34.934 34.934 0 0 1 2.7 4.666 86.481 86.481 0 0 1-7.647 10.265 37.9 37.9 0 0 1-7.2 6.276c-.165.109-.335.213-.5.32-.209.133-.415.27-.628.4a45.392 45.392 0 0 1-5.893 2.98h.011c.357-.115.509.446.154.561l-.215.067c1.261 2.326 2.753 4.528 4.138 6.78 1.261 2.049 2.461 4.134 3.675 6.212.2.338.393.676.591 1.014q1.109 1.884 2.268 3.737l.253-.154c.319-.2.61.305.293.5.075-.05.146-.105.22-.156a6.378 6.378 0 0 1 .006-.7c-.1.065-.189.132-.284.2-1.4-2.244-2.733-4.532-4.065-6.819-1.41-2.419-2.871-4.8-4.358-7.175-.753-1.2-1.51-2.4-2.191-3.644a39.937 39.937 0 0 0 11.1-6.922 60.565 60.565 0 0 0 9.094-10.937q.672-.979 1.33-1.97c.177-.267.545-.615.433-.948a8.928 8.928 0 0 0-.5-1.067 30.707 30.707 0 0 0-1.948-3.284 8.311 8.311 0 0 0 2.2-.191 9.7 9.7 0 0 0 5.4-3.305 12.735 12.735 0 0 0 2.453-6.152 21.9 21.9 0 0 0 .206-3.144c.007-.647.184-2.193 1.139-2.071.665.085 1.089.956 1.362 1.482a8.984 8.984 0 0 1 .733 2 23.521 23.521 0 0 1 .523 4.344.292.292 0 0 0 .571.077 13.99 13.99 0 0 0 .591-3.877 13.683 13.683 0 0 0-.126-1.961 9.132 9.132 0 0 1-.189-1.664.956.956 0 0 1 .839-1.023 1.983 1.983 0 0 1 1.318.677 5.516 5.516 0 0 1 .939 1.369 14.146 14.146 0 0 1 .816 1.779 14.537 14.537 0 0 1 .893 4.107c.026.371.6.376.582 0l-.258-4.773a9.9 9.9 0 0 1-.058-2.014 1.054 1.054 0 0 1 .244-.6c.262-.239.585.037.787.223a10.784 10.784 0 0 1 3.167 6.178 19.08 19.08 0 0 1-.448 6.281 50.686 50.686 0 0 1-4.077 12.157 74.981 74.981 0 0 1-7.107 11.9c-.288.4-.594.782-.888 1.174q.484-.169.977-.322a76.585 76.585 0 0 0 6.988-11.357 53.382 53.382 0 0 0 4.458-12.356q.156-.715.283-1.437c.095-.532.181-1.066.254-1.6.1-.768.206-1.547.242-2.325.013-.277.019-.554.012-.831a11.445 11.445 0 0 0-2.32-6.615z"></path><path class="c" d="m77.765 110.347-.253.154-.056.034a68.521 68.521 0 0 1-11.526 5.752 57.766 57.766 0 0 1-10.461 2.913 55.88 55.88 0 0 1-9.036.848 69.791 69.791 0 0 1-7.343-.318c-1.849-.171-3.692-.414-5.542-.579a33.965 33.965 0 0 0-.55-.046c-.373-.028-.371.554 0 .582 1.781.134 3.553.374 5.33.551 2.395.238 4.8.393 7.2.4a56.588 56.588 0 0 0 19.328-3.338c2-.713 3.958-1.531 5.876-2.438q2.97-1.405 5.8-3.086.747-.443 1.485-.9l.041-.026c.317-.198.025-.701-.293-.503zm23.04-43.247a3.307 3.307 0 0 0 .348-1.81c-.036-.369-.618-.373-.582 0a2.728 2.728 0 0 1-.268 1.516c-.166.334.335.629.502.294zm6.382-.291a3.9 3.9 0 0 0 .6-1.674c.046-.371-.536-.367-.582 0a3.254 3.254 0 0 1-.516 1.38c-.209.315.294.607.498.294zm4.885 62.327c.371.04.369-.542 0-.582a3.6 3.6 0 0 1-2.42-1.34l-.042-.05c-.224-.3-.729-.006-.5.293.039.051.081.1.121.144a4.23 4.23 0 0 0 2.841 1.535zm61.991 50.215a.291.291 0 0 0 .581 0l.2-14.6.058-4.181a.291.291 0 0 0-.581 0l-.2 14.6zM24.862 41.271a35.063 35.063 0 0 1 5.079-11.538 34.464 34.464 0 0 1 2.188-2.887c.24-.285-.169-.7-.411-.411A35.388 35.388 0 0 0 24.3 41.116c-.085.364.475.519.562.155zm-6.821 3.721a38.363 38.363 0 0 1 7.725-18.951 37.567 37.567 0 0 1 3.883-4.3c.272-.259-.14-.669-.411-.412a38.54 38.54 0 0 0-6.538 8.189 39.2 39.2 0 0 0-4.117 9.637 38.358 38.358 0 0 0-1.124 5.837c-.042.371.541.368.582 0z"></path></g></g></svg>