<svg xmlns="http://www.w3.org/2000/svg" width="250" height="250" viewBox="0 0 250 250"><g transform="matrix(0.625,0,0,0.625,0,0)"><g transform="matrix(6.25,0,0,6.25,0,0)"><defs><style>.cls-1{fill:#b1b1b1;}.cls-1,.cls-10,.cls-11,.cls-12,.cls-14,.cls-2,.cls-3,.cls-4,.cls-5,.cls-8{stroke:#231f20;}.cls-1,.cls-10,.cls-11,.cls-12,.cls-13,.cls-14,.cls-2,.cls-3,.cls-4,.cls-5,.cls-6,.cls-7,.cls-8,.cls-9{stroke-linecap:round;stroke-linejoin:round;}.cls-2,.cls-7,.cls-9{fill:none;}.cls-3{fill:#231f20;}.cls-4{fill:#f4f4f4;}.cls-5{fill:#33ddff;}.cls-6{fill:#adf1ff;stroke:#adf1ff;}.cls-7{stroke:#33ddff;}.cls-8{fill:#ff3446;}.cls-9{stroke:#ffffff;}.cls-10{fill:#21cd62;}.cls-11{fill:#ffffff;}.cls-12{fill:#ffc800;}.cls-13,.cls-14{fill:#e4e4e4;}.cls-13{stroke:#e4e4e4;}.cls-15{fill:#ffa9b3;}</style></defs><g id="Artificial_intelligence" data-name="Artificial intelligence"><path class="cls-1" d="M14.82858,57a3,3,0,0,1-2.12132-.87868L5.87868,49.29274A3,3,0,0,1,5,47.17142V16.82858a3,3,0,0,1,.87868-2.12132l6.82858-6.82858A3,3,0,0,1,14.82858,7H49.17142a3,3,0,0,1,2.12132.87868l6.82858,6.82858A3,3,0,0,1,59,16.82858V47.17142a3,3,0,0,1-.87868,2.12132l-6.82858,6.82858A3,3,0,0,1,49.17142,57Z"></path><line class="cls-2" x1="5.5" y1="15.75" x2="9" y2="15.75"></line><line class="cls-2" x1="5.5" y1="48.25" x2="9" y2="48.25"></line><rect class="cls-3" x="57" y="31" width="6" height="2"></rect><rect class="cls-3" x="57" y="22" width="6" height="2"></rect><rect class="cls-3" x="57" y="40" width="6" height="2"></rect><rect class="cls-3" x="1" y="31" width="6" height="2"></rect><rect class="cls-3" x="1" y="22" width="6" height="2"></rect><rect class="cls-3" x="1" y="40" width="6" height="2"></rect><rect class="cls-3" x="29.00001" y="3.00002" width="6" height="2" transform="translate(36.00003 -27.99998) rotate(90)"></rect><rect class="cls-3" x="38" y="3.00002" width="6" height="2" transform="translate(45.00002 -36.99998) rotate(90)"></rect><rect class="cls-3" x="20" y="3.00002" width="6" height="2" transform="translate(27.00002 -18.99997) rotate(90)"></rect><rect class="cls-3" x="29.00001" y="59.00003" width="6" height="2" transform="translate(92.00004 28.00002) rotate(90)"></rect><rect class="cls-3" x="38" y="59.00003" width="6" height="2" transform="translate(101.00003 19.00002) rotate(90)"></rect><rect class="cls-3" x="20" y="59.00003" width="6" height="2" transform="translate(83.00003 37.00003) rotate(90)"></rect><path class="cls-4" d="M18.82858,57a3,3,0,0,1-2.12132-.87868L9.87868,49.29274A3,3,0,0,1,9,47.17142V16.82858a3,3,0,0,1,.87868-2.12132l6.82858-6.82858A3,3,0,0,1,18.82858,7H49.17142a3,3,0,0,1,2.12132.87868l6.82858,6.82858A3,3,0,0,1,59,16.82858V47.17142a3,3,0,0,1-.87868,2.12132l-6.82858,6.82858A3,3,0,0,1,49.17142,57Z"></path><path class="cls-5" d="M47.5144,52a2,2,0,0,0,1.41415-.58573l4.4856-4.48521A2,2,0,0,0,54,45.51478V18.48522a2,2,0,0,0-.58585-1.41428l-4.4856-4.48521A2,2,0,0,0,47.5144,12H20.4856a2,2,0,0,0-1.41415.58573l-4.4856,4.48521A2,2,0,0,0,14,18.48522V45.51478a2,2,0,0,0,.58585,1.41428l4.4856,4.48521A2,2,0,0,0,20.4856,52Z"></path><rect class="cls-6" x="39" y="37" width="10" height="6"></rect><line class="cls-7" x1="41" y1="38.875" x2="47" y2="38.875"></line><line class="cls-7" x1="47" y1="41.125" x2="41" y2="41.125"></line><rect class="cls-6" x="19" y="19" width="12" height="10"></rect><line class="cls-7" x1="21" y1="21.5" x2="29" y2="21.5"></line><line class="cls-7" x1="21" y1="24" x2="29" y2="24"></line><line class="cls-7" x1="29" y1="26.5" x2="21" y2="26.5"></line><rect class="cls-6" x="21" y="44" width="4" height="3"></rect><rect class="cls-8" x="45" y="15.00002" width="10.99999" height="8.99998" rx="1"></rect><line class="cls-9" x1="48" y1="18.24998" x2="53" y2="18.24998"></line><line class="cls-9" x1="53" y1="20.74998" x2="48" y2="20.74998"></line><rect class="cls-10" x="12" y="35" width="8" height="7" rx="1"></rect><line class="cls-9" x1="14.5" y1="37.37497" x2="17.5" y2="37.37497"></line><line class="cls-9" x1="17.5" y1="39.62497" x2="14.5" y2="39.62497"></line><rect class="cls-11" x="24" y="24" width="20" height="16" rx="4" transform="translate(68 64) rotate(-180)"></rect><polygon class="cls-12" points="46 35 44 36 44 28 46 29 46 35"></polygon><polygon class="cls-12" points="24 36 22 35 22 29 24 28 24 36"></polygon><path class="cls-11" d="M22,40H46a0,0,0,0,1,0,0v2A10,10,0,0,1,36,52H32A10,10,0,0,1,22,42V40A0,0,0,0,1,22,40Z" transform="translate(68 92) rotate(-180)"></path><rect class="cls-13" x="30" y="47" width="8" height="2"></rect><path class="cls-14" d="M31,40h6a0,0,0,0,1,0,0v0a2,2,0,0,1-2,2H33a2,2,0,0,1-2-2v0A0,0,0,0,1,31,40Z"></path><line class="cls-11" x1="38" y1="29" x2="38" y2="31"></line><line class="cls-11" x1="30" y1="31" x2="30" y2="29"></line><rect class="cls-15" x="39.5" y="32.75" width="2" height="1.5" rx="0.5"></rect><rect class="cls-15" x="26.5" y="32.75" width="2" height="1.5" rx="0.5" transform="translate(55 67) rotate(-180)"></rect><path class="cls-14" d="M42,42.01361V52h4V50A9.974,9.974,0,0,0,42,42.01361Z"></path><path class="cls-14" d="M26,42.01361V52H22V50A9.974,9.974,0,0,1,26,42.01361Z"></path><path class="cls-2" d="M32,35a2,2,0,0,0,4,0"></path><circle class="cls-3" cx="34" cy="18" r="1"></circle><line class="cls-2" x1="34" y1="19" x2="34" y2="24"></line><rect class="cls-14" x="42" y="50" width="4" height="2"></rect><rect class="cls-14" x="22" y="50" width="4" height="2"></rect></g></g></g></svg>