<svg width="122" height="135" viewBox="0 0 122 135" fill="none" xmlns="http://www.w3.org/2000/svg">
<path d="M114.081 23.5503C109.079 16.0475 102.154 10.2761 93.3042 6.23612C84.2624 2.19614 73.6815 0.0799561 61.5615 0.0799561H0V30.0912H59.253C66.9482 30.0912 72.9119 31.8227 76.952 35.2855C80.7995 38.7483 82.9157 43.7502 82.9157 49.9064C82.9157 56.2549 80.7995 61.0644 76.952 64.5272C72.9119 67.9901 66.9482 69.5291 59.253 69.5291H0V134.746H38.0912V99.5404H61.5615C73.6815 99.5404 84.2624 97.6166 93.3042 93.5766C102.154 89.5366 109.079 83.7652 114.081 76.2624C118.891 68.952 121.392 60.1025 121.392 49.9064C121.392 39.9026 118.891 31.0531 114.081 23.5503Z" fill="#1E1A17"/>
</svg>
