<svg width="48" height="48" viewBox="0 0 48 48" fill="none" xmlns="http://www.w3.org/2000/svg">
<path d="M41 21C42.105 21 43 20.105 43 19V7C43 5.895 42.105 5 41 5H29C27.895 5 27 5.895 27 7V10H24V14H27V19C27 20.105 27.895 21 29 21H35V25H39V21H41ZM31 17V9H39V17H31Z" fill="#8B5CF6"/>
<path d="M39 35H35V39H39V35Z" fill="#8B5CF6"/>
<path d="M43 31H39V35H43V31Z" fill="#8B5CF6"/>
<path d="M41 43C42.105 43 43 42.105 43 41V39H39V43H41Z" fill="#8B5CF6"/>
<path d="M35 31H31V35H35V31Z" fill="#8B5CF6"/>
<path d="M35 39H31V43H35V39Z" fill="#8B5CF6"/>
<path d="M15 33H11V37H15V33Z" fill="#8B5CF6"/>
<path d="M15 11H11V15H15V11Z" fill="#8B5CF6"/>
<path d="M37 11H33V15H37V11Z" fill="#8B5CF6"/>
<path d="M43 25H39V29H43V25Z" fill="#8B5CF6"/>
<path d="M27 25V21H21V25H17V27H13V25H9V27H7C5.895 27 5 27.895 5 29V41C5 42.105 5.895 43 7 43H19C20.105 43 21 42.105 21 41V37H25V39H29V29H31H35V25H31H27ZM17 39H9V31H17V39ZM25 33H21V29H23H25V33Z" fill="#8B5CF6"/>
<path d="M17 21H19C20.105 21 21 20.105 21 19V18H24V14H21V7C21 5.895 20.105 5 19 5H7C5.895 5 5 5.895 5 7V19C5 20.105 5.895 21 7 21H13V25H17V21ZM9 17V9H17V17H9Z" fill="#8B5CF6"/>
</svg>
